<?xml version="1.0" standalone="no"?>
<!DOCTYPE svg PUBLIC "-//W3C//DTD SVG 1.1//EN" "http://www.w3.org/Graphics/SVG/1.1/DTD/svg11.dtd" >
<svg xmlns="http://www.w3.org/2000/svg">
<metadata></metadata>
<defs>
<font id="baroque_scriptregular" horiz-adv-x="1010" >
<font-face units-per-em="2048" ascent="1638" descent="-410" />
<missing-glyph horiz-adv-x="1000" />
<glyph horiz-adv-x="2048" />
<glyph horiz-adv-x="2048" />
<glyph unicode="&#xd;" horiz-adv-x="508" />
<glyph unicode=" "  horiz-adv-x="1000" />
<glyph unicode="&#x09;" horiz-adv-x="1000" />
<glyph unicode="&#xa0;" horiz-adv-x="1000" />
<glyph unicode="!" horiz-adv-x="946" d="M25 60q0 172 56 172q196 -32 196 -64q12 -43 12 -84v-20q0 -56 -84 -64h-60q-120 0 -120 60zM181 388q432 1569 448 1608q31 40 160 40l108 8q9 0 24 -24q0 -32 -196 -484l-504 -1176h-20q-20 12 -20 28z" />
<glyph unicode="&#x22;" horiz-adv-x="826" d="M25 2168q0 88 76 124q16 8 44 8h24q81 0 112 -80l12 -76l-108 -776l-4 -4h-40q-18 0 -40 232q-76 517 -76 572zM537 2136v24q0 95 72 132l60 12q102 0 128 -108l4 -44q-88 -693 -112 -788h-40q-13 0 -32 152z" />
<glyph unicode="#" horiz-adv-x="2158" d="M25 764q59 148 72 148l20 4h480q8 0 160 448l-4 4h-536l-8 8q0 19 48 148l24 8h532q9 1 132 360l140 392l28 4h132q24 0 24 -16l-260 -740h444q12 7 132 360l140 388l4 4h164l8 -8l-220 -648l-32 -96h460q24 -2 24 -12q-48 -148 -64 -152h-468q-32 -4 -32 -52 q-140 -378 -140 -400h496q24 -2 24 -12q-43 -152 -60 -152h-516q-19 -23 -132 -360l-140 -384l-4 -4h-168l-8 8q0 16 256 736l-4 4h-420q-26 0 -36 -60l-252 -684l-24 -8h-144l-16 16l260 732l-4 4h-500zM789 916h448q9 0 152 436l4 16h-440q-10 0 -164 -448v-4z" />
<glyph unicode="$" horiz-adv-x="1466" d="M25 181v16q28 76 56 76q11 0 116 -76q190 -104 300 -104l264 868q-240 263 -260 332q-52 92 -52 164v24q0 266 356 388q96 28 208 28h24q12 0 60 164q15 11 104 24l8 -12l-60 -184q292 -91 292 -148q-6 -26 -40 -56h-8l-128 68q-102 50 -140 52h-4q-200 -663 -200 -688 q352 -323 352 -592q0 -364 -480 -496l-224 -28q-41 -172 -56 -172l-92 -16l-4 4v8l48 180q-333 65 -440 176zM597 77h4q323 0 440 276q20 62 20 124v36q0 167 -220 380zM653 1509q0 -109 180 -300h4l188 608l-4 4h-48q-220 0 -304 -192q-16 -47 -16 -96v-24z" />
<glyph unicode="%" horiz-adv-x="1874" d="M31 1506q0 353 256 640q129 108 260 108h48q148 0 260 -164q60 -103 60 -228q0 -99 -60 -288q31 -12 56 -12q198 0 504 468q126 236 144 236q0 7 40 8h24q22 0 28 -16v-4q0 -13 -396 -688l-1020 -1748l-4 -4h-116l-16 16v4q613 885 1096 1792q-185 -160 -300 -160l-84 16 q-153 -368 -404 -368h-44q-181 0 -300 224q-32 85 -32 168zM207 1426q0 -166 96 -220q39 -16 76 -16h40q160 0 268 272q32 81 32 100q-28 52 -28 116q5 117 108 300v4q0 136 -132 184l-32 4h-36q-198 0 -352 -444q-40 -144 -40 -300zM991 390q0 372 264 644q122 108 272 108 h4q250 0 316 -284l8 -100q0 -356 -252 -644q-126 -112 -256 -112h-28q-196 0 -308 252q-20 87 -20 136zM1159 326q0 -256 200 -256q257 0 392 616l8 104v32q0 178 -140 224l-44 4h-16q-270 0 -392 -636z" />
<glyph unicode="&#x26;" horiz-adv-x="2378" d="M25 448q0 367 444 532q52 16 172 36q-104 188 -104 376q0 395 428 552q106 24 184 24h52q107 0 204 -36v-4q-29 -108 -44 -108h-4q-152 56 -208 56h-56q-239 0 -324 -272q-16 -73 -20 -160q0 -207 104 -436q81 -10 308 -124q105 -60 252 -188q25 0 48 240v96l-4 40l16 12 q724 13 724 44q39 0 132 88h12q12 0 12 -16q-46 -153 -152 -216q-114 -80 -392 -80h-36l-228 4q-36 -181 -68 -268q302 -395 368 -600v-4q-2 -8 -20 -16q-168 0 -568 300h-4q-353 -320 -692 -320h-60q-234 0 -400 196q-76 105 -76 252zM273 456q0 -255 240 -336l92 -12h60 q285 0 528 268q-300 256 -444 452q-36 57 -60 80h-4q-179 0 -340 -200q-72 -121 -72 -252zM921 872q63 -162 296 -392q32 -32 44 -32q89 97 116 172q-62 71 -156 132q-165 102 -284 120l-4 4zM1321 400q1 -9 156 -136q153 -104 176 -104v4q0 161 -216 388h-4z" />
<glyph unicode="'" horiz-adv-x="318" d="M25 2168q0 88 76 124q16 8 44 8h24q81 0 112 -80l12 -76l-108 -776l-4 -4h-40q-18 0 -40 232q-76 517 -76 572z" />
<glyph unicode="(" horiz-adv-x="1174" d="M25 719v72q0 1125 1060 2488h12q39 0 52 -28q-326 -581 -520 -1060q-396 -1011 -396 -1920q0 -463 104 -776v-16q0 -9 -48 -24q-31 0 -144 360q-120 442 -120 904z" />
<glyph unicode=")" horiz-adv-x="1178" d="M25 -527q916 1599 916 2984q0 424 -108 776v12q0 17 48 20q27 0 68 -128q200 -536 200 -1120v-12l4 -48q0 -999 -788 -2128q-141 -205 -280 -384l-4 -4h-12q-44 12 -44 24v8z" />
<glyph unicode="*" horiz-adv-x="1434" d="M31 2672v24q3 40 24 40q194 0 516 -124v4q-115 151 -292 292q-44 34 -44 52q20 92 36 92h12q185 -154 284 -296l100 -136q94 428 144 428q0 18 64 32h64q84 0 84 -20v-8q-189 -198 -236 -312q-52 -101 -52 -160q321 192 500 192q47 0 180 -80v-12q0 -15 -168 -28 q-334 -52 -468 -112l-12 -12q464 -164 464 -268v-4q-8 -135 -36 -144h-8l-56 88q-143 147 -272 208q-93 48 -104 48v-8q175 -280 184 -400v-16q0 -28 -76 -176h-8q-16 0 -28 156q-32 181 -80 312q-55 123 -68 128q-100 -239 -100 -568q0 -16 -20 -28h-64l-16 16v24 q0 256 120 536h-4q-141 -40 -432 -268h-12q-84 30 -84 60q138 115 324 204q101 49 208 88v8q-263 108 -532 108q-27 0 -36 40z" />
<glyph unicode="+" horiz-adv-x="1934" d="M25 888v140q4 12 24 12h836v864q7 16 28 16h112q24 -2 24 -12v-868h836q24 -2 24 -12v-140l-12 -12h-840l-8 -8v-856l-12 -12h-140l-12 12v856l-8 8h-840z" />
<glyph unicode="," horiz-adv-x="494" d="M1 -307q22 88 56 88q220 141 220 232v24q0 44 -60 48l-76 -20h-8l-16 16q39 196 80 196q28 16 72 16h32q140 -12 140 -136l4 -24q0 -226 -436 -448h-4l-4 4v4z" />
<glyph unicode="-" horiz-adv-x="1662" d="M25 841v140l12 12h1588l12 -12v-140l-12 -12h-1588z" />
<glyph unicode="." horiz-adv-x="310" d="M25 60q0 172 60 172q192 -29 192 -72l8 -60v-44q0 -49 -88 -56h-52q-120 0 -120 60z" />
<glyph unicode="/" horiz-adv-x="1434" d="M25 28l1268 3000l28 4h52q36 0 36 -28v-4l-1192 -2980q-8 -18 -16 -20h-160q-16 7 -16 28z" />
<glyph unicode="0" horiz-adv-x="1326" d="M25 636v36q0 450 308 916q272 340 512 340h44q288 0 388 -396q24 -119 24 -236v-72q0 -618 -412 -1068q-179 -156 -344 -156h-52q-200 0 -344 204q-124 188 -124 432zM269 496q0 -293 164 -404q55 -24 100 -24h28q292 0 508 744q76 285 76 584q0 325 -160 432 q-50 20 -80 20h-40q-304 0 -528 -812q-68 -286 -68 -540z" />
<glyph unicode="1" horiz-adv-x="810" d="M25 24q468 1489 480 1544q-343 -353 -420 -380q-12 0 -32 32v20q388 350 440 448q101 176 184 176l96 4q12 -15 12 -28l-536 -1816q-16 -24 -92 -24h-116q-16 8 -16 24z" />
<glyph unicode="2" horiz-adv-x="1322" d="M25 44v8q0 15 156 244q60 112 108 112l40 -8q8 0 196 216q512 625 512 976v16q0 157 -116 196l-48 8h-52q-215 0 -352 -344q-23 -72 -40 -164l-24 -8h-12q-28 0 -28 28q0 181 152 408q166 196 368 196h44q195 0 320 -192q48 -96 48 -184q0 -264 -504 -780l-376 -396 q0 -7 224 -104q178 -84 252 -84h20q126 0 292 232l4 4h4q31 0 40 -32q-228 -392 -412 -392h-28q-79 0 -532 176l-24 4l-180 -164h-8q-24 0 -44 28z" />
<glyph unicode="3" horiz-adv-x="1226" d="M25 88q14 36 40 36q121 -52 220 -52h44q346 0 536 464q36 107 36 188v40q0 183 -192 248l-92 12q-76 0 -220 -48q-40 17 -40 48q0 17 156 88q452 243 452 516v28q0 100 -100 144l-32 8h-44q-174 0 -360 -280l-4 -4h-12q-44 9 -44 40q12 58 176 224q157 136 320 136h40 q190 0 280 -180q16 -55 16 -100v-16q0 -292 -556 -520v-4q241 0 408 -156q92 -103 92 -244q0 -313 -380 -592q-184 -112 -380 -112h-64q-270 14 -296 88z" />
<glyph unicode="4" horiz-adv-x="1198" d="M25 644v4q8 33 156 224q407 589 568 924q50 68 136 68q123 32 160 32q24 -16 24 -36q-39 -122 -424 -588q-114 -145 -488 -572h4l624 8q68 0 68 16q100 389 116 420q0 25 180 40q24 -7 24 -36l-104 -428h56q31 0 36 -16v-24q0 -30 -40 -36h-72q-9 0 -120 -468 q-31 -144 -64 -144l-184 -32h-8l-16 16q0 37 164 608v8l-784 -16q-12 15 -12 28z" />
<glyph unicode="5" horiz-adv-x="1298" d="M25 44v12q0 22 24 36q113 -28 204 -28q297 0 540 328q108 178 108 368v40q0 220 -192 280q-18 8 -52 8h-48q-99 0 -288 -128q-76 -52 -92 -52q-24 8 -24 32q244 784 288 892q23 32 120 32l456 4q112 0 184 64h4q16 -4 16 -16q0 -97 -100 -192q-88 -72 -384 -72h-192 l-80 4q-172 -517 -192 -600q187 132 360 132h56q237 0 364 -224q32 -83 32 -172v-16q0 -357 -424 -648q-212 -128 -444 -128h-52q-181 9 -192 44z" />
<glyph unicode="6" horiz-adv-x="1162" d="M25 516q0 619 788 1360q93 80 112 80h4l36 -32v-12q0 -23 -128 -144q-592 -699 -592 -1336q0 -243 168 -340q37 -12 68 -12h36q253 0 376 496q20 98 20 212q0 173 -84 224l-44 12h-40q-195 0 -308 -432q-16 -104 -36 -104h-24l-16 20v4q0 307 220 540q112 84 220 84h28 q187 0 280 -220q28 -66 28 -144v-44q0 -316 -284 -588q-166 -140 -336 -140h-52q-280 0 -400 284q-40 110 -40 232z" />
<glyph unicode="7" horiz-adv-x="1478" d="M25 12v8q5 70 384 576q274 358 820 1028l-4 4h-4l-540 16q-168 0 -228 -160q-17 -80 -68 -80q-25 8 -28 20v16q9 120 136 324q65 100 324 100h196q205 0 356 -20q46 36 56 36q17 0 28 -44q-2 -18 -200 -304q-555 -771 -796 -1216l-152 -276q-17 -32 -136 -32l-128 -8z " />
<glyph unicode="8" horiz-adv-x="1222" d="M25 412q0 294 476 708v8q-128 202 -128 380q0 255 240 376q85 40 168 40h52q241 0 340 -224q16 -41 24 -140q0 -224 -332 -600q172 -279 172 -472q0 -328 -360 -464q-77 -24 -156 -24h-40q-275 0 -416 236q-40 82 -40 176zM193 384q0 -195 168 -292q65 -20 100 -20h56 q163 0 264 180q40 84 40 164v32q0 180 -276 600h-4q-348 -327 -348 -596v-68zM569 1580q0 -153 252 -540q236 251 236 508v56q0 178 -144 228l-52 8h-56q-90 0 -164 -76q-72 -82 -72 -176v-8z" />
<glyph unicode="9" horiz-adv-x="1158" d="M25 1108v48q0 311 280 624q185 188 356 188h40q290 0 412 -408q20 -126 20 -204q0 -497 -560 -1096q-182 -178 -296 -260h-20q-28 22 -28 44q0 17 124 120q548 533 548 1280q0 325 -148 416q-49 24 -88 24h-40q-243 0 -392 -380q-40 -112 -40 -224v-44q0 -237 160 -280 l40 -4h40q186 0 296 372q9 88 36 88h16q22 0 32 -24q-38 -258 -152 -432q-146 -204 -300 -204h-44q-183 0 -272 232q-20 61 -20 124z" />
<glyph unicode=":" horiz-adv-x="562" d="M25 59v24q0 132 44 152h4q50 0 180 -40q32 -31 32 -120v-12q0 -51 -88 -60h-52q-120 4 -120 56zM269 919q0 164 56 164q192 -25 192 -56q20 -36 20 -84v-24q0 -72 -96 -72h-32q-140 0 -140 72z" />
<glyph unicode=";" horiz-adv-x="682" d="M25 -303q18 84 56 84q220 140 220 232v16q0 52 -44 52h-12q-32 0 -80 -20q-20 7 -20 20q32 200 96 200q0 8 72 12q112 0 148 -92l8 -56v-20q0 -217 -432 -440h-4zM393 913q7 164 44 164q204 -19 204 -68q9 -6 16 -88q0 -80 -104 -80h-28q-132 0 -132 72z" />
<glyph unicode="&#x3c;" horiz-adv-x="1902" d="M25 756v124q4 15 484 204l1352 552h4l12 -12v-132q0 -43 -64 -52l-1520 -620v-8l1580 -640l4 -28v-132l-12 -12h-4q-169 64 -1832 752z" />
<glyph unicode="=" horiz-adv-x="1934" d="M25 572v140q4 12 24 12h1836q24 -2 24 -12v-140l-12 -12h-1860zM25 1148v144q4 12 24 12h1836q24 -2 24 -12v-144l-12 -12h-1860z" />
<glyph unicode="&#x3e;" horiz-adv-x="1902" d="M25 8v156q0 16 288 124l1292 524v8l-1572 640l-8 12v156l8 8h4q93 -32 1832 -748l8 -24v-84q0 -40 -64 -52q-1703 -704 -1776 -728h-4z" />
<glyph unicode="?" horiz-adv-x="998" d="M25 1548q39 239 144 392q165 224 380 224h40q148 0 272 -124q112 -131 112 -296q0 -276 -312 -696q-355 -484 -416 -680q-10 -31 -24 -36h-4q-44 6 -44 20v4q0 73 340 752q212 458 212 668v36q0 205 -156 248l-40 4h-48q-214 0 -344 -372l-48 -164l-24 -8h-24 q-16 7 -16 28zM61 56v4q0 172 56 172q188 -35 188 -56q16 -43 16 -92v-20q0 -64 -88 -64h-52q-120 4 -120 56z" />
<glyph unicode="@" horiz-adv-x="2754" d="M25 1276q0 748 712 1216q361 212 756 212h88q630 0 972 -460q176 -264 176 -612q0 -613 -488 -932q-135 -76 -260 -76q-213 0 -292 180q-20 64 -28 140l-108 -144q-168 -172 -392 -172q-291 0 -392 364l-16 160q0 427 412 744q161 112 336 112h8q251 0 336 -276 q0 -12 8 -12q79 260 92 260h172q8 0 8 -12l-280 -1040l-8 -76q0 -156 160 -156q223 0 464 304q192 273 192 588v92q0 462 -388 756q-306 196 -672 196h-80q-626 0 -1048 -516q-276 -367 -276 -896q0 -667 648 -1012q287 -132 576 -132h104q483 0 924 324h4l36 -48v-12 q-130 -107 -332 -200q-329 -140 -640 -140h-84q-835 0 -1248 656q-152 276 -152 620zM945 1028q0 -245 172 -316q47 -12 80 -12q302 0 532 560q60 177 60 344q0 211 -184 324q-65 20 -108 20q-268 0 -500 -600q-52 -165 -52 -320z" />
<glyph unicode="A" horiz-adv-x="3730" d="M25 1398q0 675 556 1136q173 125 320 176q178 68 508 68q297 396 776 396h68q560 0 840 -520q104 -232 104 -500v-32q0 -288 -68 -836q175 -56 240 -144q24 -22 24 -36q-26 -24 -44 -24q-141 140 -220 140h-4q-64 -323 -64 -716v-32q0 -640 368 -640q180 0 216 180 q0 88 28 88h4q17 0 28 -16q0 -227 -196 -296q-66 -16 -108 -16h-60q-345 0 -508 456q-76 222 -76 504q0 182 44 464q-205 -84 -364 -120q-186 -625 -528 -880q-262 -192 -648 -192q-694 0 -1076 692q-160 305 -160 700zM109 1330q0 -662 552 -1080q274 -172 568 -172h56 q635 0 936 772q72 161 72 200q-184 -24 -184 -32q-282 -324 -640 -324h-60q-384 0 -620 372q-88 173 -88 360v12q0 78 48 236h8q36 -2 36 -12v-8q-28 -120 -28 -232q0 -377 344 -584q134 -64 260 -64h68q258 0 540 264v8q-78 14 -184 116v12l40 36q101 -94 140 -96l44 -12 q57 51 120 160q83 171 92 236v4h-4q-148 -68 -276 -68h-36q-382 0 -600 404q-84 171 -84 368v36q0 248 128 468v8h-4q-392 0 -748 -284q-496 -452 -496 -1104zM1289 2190q0 -337 276 -576q162 -124 372 -124q161 0 324 108q12 52 12 136v72q0 519 -468 796q-160 83 -356 116 q-23 -9 -80 -136q-80 -183 -80 -332v-60zM1485 2778q0 -7 132 -32q223 -55 432 -240q304 -301 304 -764v-80l8 -8q214 278 276 520l24 8h20l16 -16q-130 -412 -356 -596q-48 -206 -112 -356l-56 -104v-4q160 16 160 28q264 697 348 892q107 185 268 276q-6 148 -96 360 q-53 116 -188 248q-217 184 -476 184h-84q-349 0 -620 -316zM2457 1150h4l336 104q17 0 48 180q104 660 104 740v48h-4q-107 -81 -164 -192q-159 -261 -324 -880z" />
<glyph unicode="B" horiz-adv-x="3666" d="M25 1412q0 608 444 1008q237 221 668 332q135 158 252 228q351 224 736 224h68q465 0 964 -384h4q166 124 308 124q172 -15 172 -36v-40l-12 -12l-136 16q-133 0 -288 -100l120 -132q212 -260 212 -508v-52q0 -365 -364 -512v-4q260 -223 260 -508v-4l-12 -168v-40 q135 -159 148 -256v-4q0 -15 -48 -28h-4q-6 1 -68 120l-56 72q-147 -475 -432 -652q-141 -84 -272 -84h-48q-210 0 -272 212l-8 88v44l8 80h-4q-423 -436 -972 -436h-68q-636 0 -1052 580q-248 366 -248 832zM113 1364q0 -628 492 -1056q303 -248 700 -248q743 0 1112 1220 q60 169 244 804q92 303 252 496q38 54 168 192q-202 188 -388 260q-250 108 -496 108h-84q-417 0 -772 -268q-68 -54 -100 -92h92q526 0 788 -324q173 -191 236 -476l8 -40h8q116 253 116 444q0 123 -52 280q0 18 40 28h4q28 -38 60 -184l8 -100v-28q0 -264 -164 -564v-124 q0 -444 -364 -768q-247 -204 -540 -204h-52q-353 0 -592 312q-124 185 -124 420q16 229 56 236h32l12 -12q-36 -151 -36 -232q0 -326 276 -536q162 -108 324 -108h80q395 0 692 436q156 266 156 480h-4q-273 -256 -572 -256h-52q-350 0 -588 308q-140 191 -140 452v16 q0 207 116 420h-4q-268 -86 -544 -324q-404 -404 -404 -968zM1009 2208q0 -422 404 -628q137 -56 256 -56h64q305 0 576 316q-30 231 -104 384q-178 337 -512 444q-147 44 -280 44h-4q-260 -22 -260 -40q-140 -181 -140 -464zM2421 336q0 -148 124 -228l52 -8h32 q210 0 412 508q54 145 92 320h-4q-111 36 -148 36q-366 0 -528 -420q-32 -107 -32 -208zM2613 900h4q167 128 364 128h12q73 0 160 -24q20 124 20 228v56q0 142 -100 256l-96 -12q-116 0 -116 76q0 56 88 56q49 -8 132 -36q200 168 200 592q0 279 -140 488 q-167 -175 -264 -576l-140 -784q-48 -197 -124 -448z" />
<glyph unicode="C" horiz-adv-x="2886" d="M25 1982q0 637 544 1044q330 236 724 236h64q488 0 820 -356q215 184 380 184h20q212 0 276 -356l8 -120v-68q0 -403 -284 -864v-16q112 -157 112 -360v-40q0 -470 -400 -984q-144 -152 -260 -228v-4q54 -128 280 -348l136 -112v-8q-29 -48 -36 -48h-12 q-251 181 -372 380q-57 108 -68 112q-40 -15 -112 -20q-337 0 -524 468q-64 176 -64 332l-8 8q-21 -8 -84 -8h-52q-577 0 -924 536q-164 278 -164 640zM113 1922q0 -544 464 -888q235 -164 560 -164h112q8 0 8 12q0 343 168 856q98 267 264 548q144 237 384 508l48 56 q-263 336 -704 336h-96q-471 0 -872 -412q-336 -375 -336 -852zM1537 610q0 -540 300 -540h12q58 0 104 28q-132 284 -132 620v24l20 248l-4 4l-292 -136l-4 -28zM1577 962h4q150 37 244 96q38 0 48 96q67 256 140 388q150 244 328 244h40q52 0 100 -40q284 577 284 972 q-9 267 -156 324l-24 4h-16q-143 0 -312 -236v-12q86 -110 152 -272q-44 -28 -60 -28q-7 0 -100 196l-40 56h-8q-122 -171 -220 -380q-112 -214 -228 -584q-76 -233 -148 -628zM1905 706q0 -324 100 -596h4q183 137 280 320q260 477 260 956v56q0 88 -28 168h-8 q-52 -94 -296 -336q-138 -127 -296 -244q-12 -137 -16 -324zM1933 1142h8q381 273 508 548q-32 28 -80 28h-16q-268 0 -420 -576z" />
<glyph unicode="D" horiz-adv-x="3706" d="M25 1460q0 778 668 1196q191 105 416 164q67 7 112 44q378 340 872 340h72q564 0 1028 -416q203 116 356 116q132 0 132 -40v-12q0 -21 -12 -24l-72 8h-64q-126 0 -288 -104v-12q348 -404 348 -1044q0 -365 -120 -720q116 -149 116 -200q-17 -13 -60 -20q-15 17 -28 64 q-25 43 -56 72h-4q-14 -17 -88 -192q-107 -235 -300 -456q-222 -224 -436 -224h-56q-172 0 -244 196q-16 48 -16 108l8 100h-4q-404 -404 -916 -404h-60q-638 0 -1056 604q-248 373 -248 856zM105 1400q0 -668 548 -1112q304 -208 624 -208h84q364 0 660 372 q126 141 304 608q200 623 316 948q132 339 416 648l80 80q-67 79 -152 140q-390 280 -796 280h-96q-425 0 -776 -304l4 -4h24q607 0 900 -464q67 -113 120 -288l28 -148h8q104 272 104 464v16q0 111 -40 248q7 24 48 24q60 -148 60 -276v-44q0 -240 -176 -576 q0 -230 -128 -536q-263 -516 -772 -516h-56q-361 0 -620 328q-120 174 -120 404q33 252 64 252q56 0 56 -20q-40 -130 -40 -220q0 -337 304 -568q151 -96 308 -96h64q400 0 716 468q98 156 136 400l-4 4q-315 -264 -580 -264h-32q-398 0 -652 376q-108 182 -108 380v48 q0 205 172 496h-4q-154 -29 -448 -220q-548 -450 -548 -1096v-24zM1001 2204q0 -434 424 -648q135 -56 284 -56h16q315 0 584 328v4q0 443 -344 756q-203 136 -260 136q-105 52 -460 52h-8q-27 0 -84 -108q-152 -239 -152 -448v-16zM2381 284q0 -121 112 -196q45 -24 84 -24 h48q394 0 696 848l20 52q-172 60 -256 60h-48q-223 0 -432 -232q-224 -243 -224 -468v-40zM2625 908q239 196 436 196h36q88 0 248 -60h4q108 392 108 676v120q0 453 -284 832q-134 -137 -220 -384q-65 -161 -164 -656q-84 -440 -164 -720v-4z" />
<glyph unicode="E" horiz-adv-x="3906" d="M25 1484q0 784 644 1240q307 192 688 192q283 296 760 296h68q235 0 968 -244q420 -120 596 -120h92q304 0 304 212v24l-12 68q13 12 52 16q24 -29 24 -112q0 -270 -284 -424q-124 -64 -260 -64h-40q-111 0 -392 68l-56 4q-202 -233 -280 -560q-88 -385 -88 -472 q143 36 240 36q145 0 284 -112q32 -47 32 -88q-7 -60 -56 -60q-38 0 -76 116q-58 72 -188 72q-116 0 -264 -52q-60 -336 -136 -572q-86 -233 -228 -428l-56 -64q315 -188 724 -188h104q225 0 440 196q80 103 80 216q0 76 -56 76q-119 -52 -160 -52q-100 0 -148 140l-4 40v12 q0 112 132 160l52 8q152 0 220 -204q20 -76 20 -152q0 -412 -392 -644q-141 -64 -280 -64h-52q-316 0 -780 332l-12 8h-8q-432 -308 -868 -308h-64q-534 0 -936 468q-348 418 -348 984zM117 1432q0 -648 536 -1100q301 -216 620 -216h84q365 0 672 368v8q-395 276 -628 276 h-120l-84 -12q-68 6 -68 52v8q0 60 76 60l192 -24h32q398 0 720 424q85 129 124 248q-61 32 -140 112q-164 -160 -392 -160q-413 0 -608 460q-56 161 -56 328q0 308 200 576v4h-4q-314 -45 -556 -212q-308 -233 -452 -540q-148 -290 -148 -624v-36zM1157 2256 q0 -406 300 -632q131 -76 252 -76h72q187 0 320 156v84q0 120 84 120q48 -18 48 -88q0 -62 -44 -116v-16q36 -60 96 -96h4q15 0 48 192l8 116q0 473 -372 780q-223 176 -520 176h-68q-27 0 -88 -108q-140 -230 -140 -472v-20zM1453 2924q0 -8 164 -24q267 -59 444 -212 q356 -315 356 -824q0 -82 -36 -304l88 -12h32q10 103 220 624q72 185 276 408l108 104q0 8 -180 60l-568 240q-280 108 -408 108h-68q-212 0 -428 -168zM1621 796q42 0 260 -132q150 -76 176 -76l32 -20q12 0 84 132q300 678 300 764l4 12h-4q-71 0 -116 16 q-68 -195 -176 -344q-165 -181 -240 -208q-105 -72 -292 -132l-28 -8v-4z" />
<glyph unicode="F" horiz-adv-x="3001" d="M25 1461v4q0 790 672 1200q245 130 416 156q92 24 236 36q330 356 864 356h68q285 0 776 -176q533 -192 768 -192h80q234 0 420 244l4 4h16q35 -21 36 -28v-8q-99 -140 -216 -224q-263 -200 -552 -200h-44q-91 0 -264 24q-211 -190 -280 -372q-92 -178 -188 -676h4 q111 19 196 20q220 -24 220 -48q-12 -52 -36 -52q-140 36 -176 36h-12q-204 -11 -204 -40q-76 -374 -148 -552q-56 -178 -172 -388q-367 -576 -1088 -576h-72q-695 0 -1132 700q-192 342 -192 752zM117 1393q0 -614 492 -1048q324 -256 672 -256h92q396 0 672 396 q223 340 464 988h-32l-80 12q-80 -251 -256 -456q-257 -264 -612 -264h-64q-344 0 -592 300q-140 192 -140 420v32q9 224 48 244q56 -21 56 -32q-43 -168 -44 -224q0 -382 376 -612q136 -60 268 -60h12q485 0 808 576l44 104v4q-67 49 -124 112q-160 -168 -352 -168h-32 q-434 0 -636 480q-52 148 -52 300q0 272 176 540v8q-249 -38 -456 -148q-140 -71 -336 -264q-372 -422 -372 -948v-36zM1169 2237q0 -374 308 -620q143 -96 316 -96q206 0 348 180l-12 80q0 108 64 124h12q38 0 44 -56v-36q0 -30 -24 -116q23 -72 96 -116q36 108 36 248v32 q0 606 -560 856q-193 72 -384 72h-32q-212 -194 -212 -552zM1445 2857q180 0 432 -100q360 -181 504 -560q68 -189 68 -412q0 -94 -36 -232v-4q36 -8 96 -8h4q34 0 60 112q177 566 328 720q134 156 304 296l12 16q-359 107 -688 264q-333 148 -496 148h-68q-287 0 -520 -240 z" />
<glyph unicode="G" horiz-adv-x="3305" d="M25 213l4 32v16q0 568 472 956q193 138 396 228q-244 283 -244 700q0 667 668 1044q275 128 536 128h72q437 0 828 -376h4q305 300 488 300h32q159 0 224 -196l8 -88v-24q0 -368 -448 -996q-135 -191 -372 -416q-125 -113 -280 -212v-8q41 -92 128 -92h20q102 0 256 168 q250 200 464 200h44q80 0 80 -56t-140 -56q-111 -33 -200 -164q-74 -120 -148 -332q-80 -249 -232 -964q-114 -409 -240 -620q-349 -564 -1028 -564h-76q-686 0 -1112 628q-200 341 -200 720v12zM117 185q0 -681 536 -1104q278 -196 620 -196h24q535 0 848 596 q172 252 436 1132q167 460 328 648q172 180 264 232v4h-8q-155 -38 -312 -176q-190 -184 -304 -184q-128 0 -236 124h-4l-144 -68v-8q224 -276 224 -572v-68q0 -496 -412 -848q-232 -164 -496 -164h-56q-376 0 -616 356q-92 173 -92 348v40q0 87 48 204l4 4h12l32 -24 q-20 -117 -20 -188q0 -396 332 -600q129 -60 236 -60h76q358 0 652 360q208 283 208 568v84q0 301 -220 548h-4q-229 -68 -364 -68h-56q-354 0 -684 268q-233 -73 -456 -268q-396 -377 -396 -920zM725 2085q0 -303 244 -604h4q239 56 372 56h56q351 0 648 -228l56 -56 l168 56v4q-80 180 -80 372q0 568 520 1212v8q-371 344 -816 344q-629 0 -1024 -592q-148 -272 -148 -572zM1041 1401q325 -212 604 -212h100q173 0 284 40v4q-263 232 -604 232h-84q-115 0 -300 -56v-8zM2401 1385h4q125 75 384 332q339 395 492 728q136 314 136 568 q0 168 -148 168h-4q-158 0 -376 -360v-4l80 -140q88 -175 88 -188l-52 -32q-16 0 -80 148l-76 132q-51 -60 -200 -400q-248 -616 -248 -908v-44z" />
<glyph unicode="H" horiz-adv-x="3900" d="M25 1453q0 779 680 1184q151 82 372 144q183 32 208 44q235 256 556 256h48q203 0 564 -232q230 -124 420 -124q142 0 500 148q72 20 168 28l16 -12v-44l-12 -12h-12q-469 0 -660 -916q-68 -236 -68 -372l340 96q0 62 176 460q405 780 828 780h48q156 0 264 -156 q16 -47 20 -92q0 -98 -120 -144h-32q-80 0 -108 140v64q0 83 -68 96h-36q-309 0 -628 -1016l-28 -104q0 -7 92 -24q111 -41 224 -152v-8q-43 -40 -64 -40q-111 144 -256 144h-20q-64 -200 -92 -384q-172 -595 -172 -888q0 -412 196 -412q219 0 324 352h8q56 -4 56 -20 q-53 -208 -180 -320q-90 -72 -176 -72h-44q-212 0 -352 308q-72 178 -72 356v36q0 394 188 1008l-4 4l-332 -76q0 -90 -104 -496q-322 -984 -1276 -984h-36q-698 0 -1120 632q-224 361 -224 820zM117 1381q0 -666 548 -1100q291 -204 656 -204q586 0 924 792 q118 258 232 572h-116q-61 -222 -228 -416q-266 -280 -660 -280q-452 0 -672 404q-76 151 -76 336v32q0 118 36 208h12q36 0 36 -20q-20 -157 -20 -240v-12q0 -322 316 -540q152 -88 312 -88h40q306 0 592 284q181 201 220 356l-108 84q0 8 -28 36q-170 -160 -408 -160 q-362 0 -572 396q-88 182 -88 356v60q0 270 160 496v4q-393 -86 -612 -280q-496 -422 -496 -1076zM1125 2205q0 -358 280 -604q140 -108 312 -108h16q237 0 368 156l-12 64v36q10 96 60 96h28q40 -21 40 -80v-12q0 -42 -36 -108q0 -45 112 -112h12q36 129 36 284 q0 535 -476 824q-205 112 -432 112h-124q-184 -245 -184 -548zM1377 2817h4q523 0 804 -368q232 -275 232 -668q0 -112 -32 -276h116l212 644q55 135 156 288q57 84 232 252v4q-196 -44 -256 -44q-279 0 -572 204q-250 152 -400 152h-60q-259 0 -436 -184v-4z" />
<glyph unicode="I" horiz-adv-x="3007" d="M25 1424q0 711 624 1180q335 220 728 220q426 0 748 -292h4q183 212 328 308q217 149 500 240q361 104 488 104q126 20 196 20l8 -24v-12q0 -30 -88 -56q-319 -152 -536 -724q-124 -361 -220 -860l4 -4q198 80 356 360h12q28 -17 28 -24q-128 -278 -380 -396 q-40 0 -48 -92q-96 -437 -208 -664q-70 -142 -216 -304q-414 -404 -944 -404h-68q-672 0 -1096 624q-220 362 -220 800zM105 1384q0 -641 524 -1076q307 -228 628 -228h100q403 0 716 364q125 167 220 396q180 493 180 580l-104 32h-4q-41 -143 -172 -348 q-273 -368 -696 -368h-56q-317 0 -568 272q-160 195 -160 424v48q0 96 52 228l12 8q36 -9 36 -20q-20 -79 -28 -232q0 -382 348 -584q146 -68 264 -68h84q318 0 632 364q164 240 164 296q8 0 12 32q-328 243 -328 588q0 155 116 384v4q-289 280 -680 280q-673 0 -1104 -680 q-188 -317 -188 -696zM2161 1860q0 -188 144 -292q24 33 40 240v36q0 169 -92 388h-12q-80 -210 -80 -324v-48zM2293 2300q128 -254 128 -516v-24q0 -93 -40 -240q46 -24 116 -24q13 0 44 104q354 986 660 1292q102 114 228 216h-4q-435 -64 -752 -312q-295 -272 -380 -496z " />
<glyph unicode="J" horiz-adv-x="3299" d="M25 246q0 671 568 1104q332 244 768 244q570 0 876 -524q116 -219 116 -484v-24q0 -536 -448 -868q-213 -132 -448 -132h-52q-358 0 -600 332q-104 169 -104 372q26 252 52 252q44 -7 44 -20q-36 -168 -36 -240q0 -350 356 -564q133 -56 232 -56h72q380 0 680 408 q172 273 172 524v88q0 414 -388 720q-227 152 -516 152q-634 0 -1052 -632q-196 -324 -196 -680v-40q0 -599 500 -1004q272 -204 644 -204q711 0 1072 876q176 385 500 1492q-188 30 -304 136q-224 200 -224 464v12l-4 16l4 16v16q0 442 544 760q202 111 488 204 q434 112 588 112l8 -12v-40q0 -13 -88 -36q-215 -85 -396 -432q-96 -199 -164 -424q-109 -379 -156 -672h4q56 9 184 132q83 95 140 196h4q25 -2 48 -24v-4q-12 -47 -120 -188q-129 -134 -244 -184q-52 -13 -52 -52q-191 -981 -392 -1408q-143 -327 -388 -592 q-429 -428 -992 -428h-68q-660 0 -1056 628q-176 319 -176 712zM2521 1774q0 -264 212 -348q60 -20 120 -28l92 304q266 876 756 1280h-8q-74 0 -336 -96q-259 -114 -460 -308q-376 -353 -376 -780v-24z" />
<glyph unicode="K" horiz-adv-x="3900" d="M25 1432q0 746 624 1168q212 141 552 196q87 0 96 32q195 181 320 232q184 72 356 72h60q349 0 740 -352q175 -150 240 -168l128 116q187 152 344 152q164 -19 164 -136q0 -194 -312 -260l-68 -4h-20q-94 0 -168 24q-96 -142 -156 -332q-76 -250 -212 -912 q-92 -341 -204 -568q-370 -684 -1112 -684h-68q-666 0 -1084 620q-220 346 -220 804zM117 1368q0 -607 476 -1036q312 -244 656 -244h84q420 0 732 428q230 360 464 1136q139 422 232 608q81 125 204 292v4q-93 50 -516 308q-287 172 -488 172h-76q-281 0 -504 -212v-4 l28 -4h24q515 0 820 -496q93 -165 140 -396h8l116 276l4 4h4q23 -5 36 -24q-11 -97 -120 -328q-52 -55 -52 -196q-28 -170 -68 -288q-260 -624 -816 -624h-60q-368 0 -616 324q-112 168 -112 368q25 284 48 284q48 -12 48 -20q-36 -210 -36 -252q0 -375 368 -568 q132 -52 244 -52h68q388 0 692 432q128 219 148 396h-4q-241 -212 -492 -212q-414 0 -640 432q-80 162 -80 364q0 243 136 480l-4 4q-292 -36 -560 -232q-536 -460 -536 -1092v-32zM1141 2220q0 -371 328 -612q151 -96 320 -96h24q278 0 504 268v40q0 475 -380 764 q-94 67 -240 116q-134 40 -388 40q-168 -253 -168 -488v-32zM2825 1660v8q0 44 60 52h28q66 0 164 -72h8q191 64 296 260q48 107 192 536q227 460 564 460h52q173 0 204 -124l4 -28v-16q0 -108 -120 -152l-24 -4q-90 0 -188 152q-27 32 -52 32h-28q-242 0 -468 -704 q-73 -215 -208 -352q-96 -79 -164 -108v-4q216 -222 216 -368q12 -37 12 -116v-60q0 -204 -68 -564l-12 -260q0 -204 112 -272q40 -16 68 -16h32q43 0 136 24q16 -18 16 -48q0 -25 -200 -80q-48 -12 -88 -12h-32q-237 0 -340 320q-16 89 -16 136q0 166 124 792 q20 119 20 200v12q0 153 -68 288l-80 -4h-20q-87 0 -124 56zM3113 2564q0 -12 120 -20h40q158 0 272 100q36 40 36 92q0 84 -96 84q-207 0 -372 -256z" />
<glyph unicode="L" horiz-adv-x="3006" d="M25 428v16q0 261 328 372q77 24 160 24h48q241 0 712 -288h4q46 73 108 208l-4 4h-132q-559 0 -904 508q-196 295 -196 688q0 700 640 1096q309 180 672 180h64q394 0 756 -288q198 180 312 180q0 8 64 8q229 0 304 -324q16 -72 20 -184q0 -735 -640 -1400 q-277 -247 -480 -324q-112 -45 -112 -60q-73 -195 -280 -444q132 -87 396 -172q179 -48 296 -48h76q225 0 436 136q120 95 120 228q0 76 -100 104q-100 62 -100 192q0 110 128 164l32 4h24q107 0 144 -196v-48q0 -277 -216 -516q-226 -248 -492 -248h-48q-278 0 -744 360 q-366 -332 -840 -332h-32q-302 0 -480 240q-44 79 -44 160zM93 436q0 -261 388 -332l52 -4h76q353 0 628 380v12q-433 260 -536 260q-59 20 -128 20h-68q-223 0 -368 -180q-44 -77 -44 -156zM249 1860q0 -546 468 -876q244 -152 512 -152h72q112 0 112 28q156 429 380 1220 q121 387 256 584l172 236v4q-320 268 -656 268h-96q-506 0 -912 -460q-308 -367 -308 -852zM1793 940h4q581 250 892 948q168 391 168 740v112q0 238 -124 312q-35 16 -76 16h-8q-117 0 -288 -216v-8q168 -224 228 -368v-4q0 -10 -48 -24q-12 3 -120 200q-70 109 -100 136 q-129 -238 -296 -888z" />
<glyph unicode="M" horiz-adv-x="4204" d="M25 1404v44q0 639 532 1076q182 138 328 184q201 78 360 84l36 4q310 352 740 352h72q579 0 828 -484q156 -322 156 -1112v-20q182 332 388 604q156 193 320 316q289 209 584 264l8 -12v-24q0 -13 -128 -52q-245 -103 -372 -404q-114 -258 -260 -780 q-168 -667 -168 -1012q0 -334 172 -416q51 -24 100 -24h44q103 0 204 124h4q36 -13 36 -20q-30 -82 -128 -144q-80 -44 -164 -44h-44q-326 0 -464 440q-28 142 -28 244q0 552 328 1344q81 176 188 352h-4q-161 -152 -276 -320q-218 -330 -516 -896q-30 -48 -36 -48l-8 8v400 q0 610 -48 840h-4q-68 -102 -148 -392q-129 -610 -184 -796q-52 -205 -160 -440q-98 -207 -268 -376q-295 -264 -684 -264h-72q-620 0 -1044 624q-220 368 -220 776zM101 1376q0 -666 568 -1116q296 -192 576 -192h88q292 0 560 256q189 204 284 396q168 312 380 1064 q127 395 228 604v4q-86 327 -292 492q-214 184 -464 184h-80q-304 0 -568 -268l4 -4h48q520 0 820 -496q84 -144 124 -364l4 -32h8q64 91 112 272q0 8 12 8q48 -4 48 -24q-60 -204 -176 -388q0 -513 -360 -844q-238 -200 -544 -200h-56q-373 0 -616 348q-100 179 -100 384 q23 240 44 240q52 -3 52 -16q-24 -121 -24 -208q0 -448 420 -624q107 -32 192 -32h72q378 0 672 400q90 130 144 312l24 132h-4q-237 -220 -508 -220q-433 0 -656 464q-52 151 -52 288v48q0 221 148 468l-4 4h-4q-65 0 -332 -96q-166 -65 -396 -276q-396 -424 -396 -968z M1149 2216q0 -383 316 -616q145 -92 320 -92h16q290 0 508 284v8q0 459 -340 752q-233 180 -492 180h-76q-100 0 -116 -52q-136 -207 -136 -464z" />
<glyph unicode="N" horiz-adv-x="4297" d="M25 1410q0 719 628 1168q326 208 712 208h24l68 -8q300 324 720 324h64q561 0 932 -556h4q236 168 492 200q16 -20 16 -52q-10 -8 -188 -48q-143 -36 -296 -168q47 -76 88 -224q68 -296 68 -1060v-192h4q124 336 260 784q380 1068 824 1068h4q106 0 164 -104l4 -32 q0 -98 -104 -136h-40q-70 0 -160 92l-32 16q-276 0 -656 -1116q-152 -564 -240 -716q-28 -36 -28 -52v-120q0 -441 188 -692q109 -116 244 -116h40q91 0 216 116q60 -17 60 -36q-128 -156 -320 -156h-52q-451 0 -636 596q-56 238 -56 484v28q0 130 48 948l4 144v84 q0 145 -20 256h-4q-111 -138 -164 -264q-112 -205 -288 -992q-112 -407 -228 -556q-185 -316 -596 -460q-200 -60 -412 -60q-797 0 -1208 732q-148 305 -148 668zM113 1338q0 -704 600 -1092q292 -168 604 -168h100q408 0 728 312q187 167 476 1144q162 537 336 780l96 120 q-122 334 -332 460q-215 140 -496 140h-32q-339 0 -648 -252v-4q119 -11 340 -112q124 -64 264 -208q166 -162 244 -472q20 -122 20 -272v-20h8q109 154 164 292q35 130 44 132h4q37 0 52 -16q-27 -140 -164 -384q-128 -155 -128 -176q0 -58 -108 -316q-284 -520 -784 -520 h-52q-430 0 -656 380q-72 161 -72 332v32q0 150 44 236h8q44 -6 44 -16q-36 -137 -36 -224q0 -397 356 -604q135 -56 252 -56h76q294 0 600 304q162 191 220 392q-202 -92 -372 -92q-434 0 -652 452q-56 162 -56 312q0 223 188 560v4h-4q-700 0 -1124 -728 q-152 -307 -152 -652zM1269 2150q0 -407 360 -636q132 -64 280 -64q215 0 404 148q24 95 24 176q0 609 -564 872q-215 80 -288 80q-216 -278 -216 -576z" />
<glyph unicode="O" horiz-adv-x="2970" d="M25 2000q0 693 636 1092q304 176 644 176h68q442 0 804 -348l136 84q128 72 208 72h28q194 0 264 -232q12 -69 12 -160v-48q120 -125 120 -344v-80q0 -793 -668 -1856q-69 -107 -276 -280q38 -127 224 -328l164 -128v-4q-15 -30 -24 -32h-12q-130 70 -264 208 q-78 91 -160 248q-83 -32 -140 -32h-4q-409 0 -540 588q-28 164 -28 228h-4q-472 0 -708 200q-186 139 -304 324q-176 289 -176 652zM109 1944q0 -574 500 -916q239 -140 532 -140h68l8 8q0 340 192 888q149 379 360 684q93 135 312 356q35 25 52 48v4q-313 312 -712 312 h-92q-443 0 -836 -368q-384 -374 -384 -876zM1501 556q0 -364 160 -456q49 -24 88 -24h48q56 0 108 36q-116 316 -116 716v60l8 116q-127 -60 -260 -108q-36 -218 -36 -340zM1541 984l4 -4h4q42 0 252 104q0 108 104 560q105 352 248 604q95 159 204 300v4l-128 228h-4 q-127 -161 -260 -452q-149 -304 -340 -1012q-65 -293 -84 -332zM1865 1032q0 -649 96 -868q1 -20 8 -20q144 95 260 268q180 292 368 808q264 756 264 1148q0 42 -36 172h-8q-144 -662 -480 -1056q-24 -47 -220 -236q-135 -120 -248 -196zM1869 1136h4q115 62 368 320 q204 242 284 420q61 105 148 368q76 291 76 364h-4q-46 32 -92 32h-32q-92 0 -188 -96q53 -135 100 -380q-15 -12 -56 -12q-14 0 -44 160l-48 168h-4q-168 -192 -272 -432q-104 -220 -192 -600q-48 -267 -48 -312zM2265 2840q77 -113 140 -228h8q116 92 228 92h4 q36 0 108 -16v4q0 248 -144 324l-48 8h-24q-140 0 -272 -176v-8z" />
<glyph unicode="P" horiz-adv-x="3774" d="M25 1456q0 815 744 1220q206 104 456 160q389 368 928 368h64q559 0 1024 -432q210 100 248 100l104 12h60q96 0 96 -24q-7 -48 -20 -48q-62 12 -104 12q-188 0 -316 -112v-8q284 -366 284 -736q0 -345 -228 -612q-148 -144 -308 -144h-44q-144 0 -224 152h-8 q-60 -324 -132 -508q-103 -270 -300 -488q-366 -368 -924 -368h-76q-551 0 -948 436q-376 423 -376 1020zM117 1368q0 -577 468 -1020q322 -272 668 -272h88q342 0 664 320q227 265 348 636q274 836 428 1172q85 172 312 432l88 92v4q-179 179 -300 236q-317 168 -656 168 h-112q-440 0 -772 -292v-4l40 4h52q531 0 852 -492q125 -241 140 -424h4q120 197 120 436v16q0 53 -32 288q11 10 52 16q19 0 48 -288v-8q0 -304 -184 -580q-16 -210 -60 -372q-62 -186 -168 -336q-277 -352 -688 -352h-60q-361 0 -604 320q-128 183 -128 428q11 203 48 228 h48l8 -8q-40 -139 -40 -228v-20q0 -251 184 -444q200 -196 444 -196h68q362 0 664 384q154 236 180 448l4 40q-258 -264 -600 -264h-20q-365 0 -608 308q-156 209 -156 480q0 274 168 484q16 18 16 28h-4q-555 -183 -804 -596q-208 -333 -208 -732v-40zM1025 2204 q0 -426 404 -644q142 -64 292 -64h24q327 0 604 312v24q0 384 -284 688q-271 248 -608 248h-88q-130 0 -148 -48q-196 -223 -196 -516zM2825 1544q0 -184 100 -236l52 -8h32q148 0 304 456q60 199 60 376q0 308 -144 524q-129 -149 -204 -364q-44 -99 -136 -432h4 q136 112 224 112h4l8 -8v-48q-16 -15 -112 -48q-192 -104 -192 -324z" />
<glyph unicode="Q" horiz-adv-x="3682" d="M25 1937v68q0 636 592 1064q323 204 684 204h64q447 0 836 -348h8q186 160 356 160h20q161 0 244 -204q24 -59 24 -132v-32l-8 -88q124 -140 124 -456q0 -722 -548 -1652l100 -124q119 -166 192 -360q104 -263 272 -432q134 -116 252 -116h60q115 0 204 124q28 49 28 100 v24q0 71 -116 104q-88 51 -88 156q0 126 116 180q18 8 52 8q138 0 164 -208v-52q0 -406 -384 -548q-81 -20 -148 -20h-52q-287 0 -492 328q-50 77 -116 348q-40 175 -128 352h-12q-257 -388 -520 -388q-413 0 -548 628l-24 176h-52q-721 0 -1052 660q-104 239 -104 476z M101 1909q0 -552 484 -880q247 -152 520 -152h120q2 181 116 608q211 691 800 1400v8q-363 308 -720 308h-100q-475 0 -872 -408q-348 -377 -348 -884zM1513 549q0 -484 292 -484q237 0 444 324q36 60 36 76q-102 132 -264 132h-36q-185 0 -336 -216h-8l-28 28v4 q34 85 148 172q111 80 248 80q169 0 328 -100h12q226 407 464 1308q64 297 64 476v16q0 98 -40 164q-68 -321 -156 -544q-118 -315 -400 -628q-254 -248 -380 -320q-17 0 -24 -200l-12 -8h-40q-12 0 -16 32l4 116h-4l-260 -116q-36 -158 -36 -312zM1573 949q19 0 240 116 q74 530 156 764q107 300 292 572l104 140q0 23 -136 232q-83 -108 -216 -376q-191 -376 -372 -1088zM1901 1125q117 64 344 288q188 215 256 360q182 315 276 832q-70 36 -116 36h-24q-80 0 -188 -104h-4v-8q92 -291 92 -360q-21 -20 -64 -20q-8 10 -36 184l-36 132h-12 q-159 -212 -232 -372q-96 -183 -188 -532q-68 -311 -68 -436zM2265 2837l152 -244q129 112 240 112h12q38 0 108 -32v80q0 182 -152 264l-52 8q-140 0 -308 -188z" />
<glyph unicode="R" horiz-adv-x="3722" d="M25 1441q0 684 580 1132q236 168 584 224q54 0 96 60q365 308 852 308h84q505 0 1000 -400q159 104 324 104q126 0 152 -44v-16q0 -13 -12 -28q-116 20 -168 20q-125 0 -248 -92v-4q280 -296 280 -628q0 -419 -364 -564q-20 -5 -20 -12q164 -165 164 -388 q0 -186 -120 -660q-36 -163 -36 -256q0 -163 112 -192l32 -4h32q104 0 212 140h8l28 -28q0 -45 -152 -164q-93 -48 -160 -48h-48q-230 0 -320 268q-16 60 -16 128v20q0 261 212 880q20 68 20 116v4q0 105 -96 172h-72q-63 0 -92 44v20q0 43 80 48q46 0 136 -48 q244 220 244 636q0 271 -140 460h-4q-118 -121 -204 -304q-73 -161 -148 -468l-124 -728q-75 -287 -156 -428q-64 -155 -296 -396q-370 -324 -844 -324h-80q-605 0 -1040 560q-272 390 -272 880zM113 1389q0 -631 512 -1076q308 -232 624 -232h88q428 0 748 464 q131 206 256 528l296 856q107 285 280 524q81 105 224 256v4q-413 392 -964 392q-481 0 -848 -288h12q505 0 748 -272q11 0 108 -116q104 -149 164 -344l36 -180q120 206 120 460q0 137 -44 276q0 10 48 24q27 0 72 -216l4 -80v-20q0 -272 -192 -560q-27 -316 -80 -420 q-40 -150 -228 -364q-266 -260 -592 -260h-68q-350 0 -588 304q-128 175 -128 424q21 244 48 244q48 -5 48 -16q-32 -156 -32 -220v-48q0 -283 276 -496q164 -112 340 -112h72q262 0 528 248q209 225 256 380q60 166 60 232q-287 -248 -560 -248h-56q-402 0 -644 396 q-88 179 -88 340v20l-4 16l4 16v4q0 206 172 496h-8q-75 0 -316 -116q-448 -261 -640 -808q-64 -212 -64 -412zM1029 2193q0 -406 380 -628q145 -64 272 -64h68q308 0 592 296q0 237 -132 496q-154 280 -504 408q-163 48 -288 48h-92q-92 0 -92 -32q-204 -253 -204 -524z " />
<glyph unicode="S" horiz-adv-x="3001" d="M25 1444q0 739 652 1184q303 172 592 204q333 440 724 440h52q357 0 716 -364v-12q-29 -36 -40 -36q-267 240 -364 268q-163 84 -324 84q-391 0 -660 -364l-8 -16v-8l20 4h52q460 0 780 -424q188 -269 188 -588v-56l-4 -140h4q84 23 84 36q193 1280 684 1280 q162 0 216 -224l4 -52v-48q0 -424 -624 -912v-28q0 -743 -252 -1120q-355 -552 -1044 -552h-76q-701 0 -1128 600q-244 365 -244 844zM113 1360q0 -605 500 -1040q327 -240 672 -240h88q451 0 744 396q127 179 216 452q88 278 148 616l4 32h-4q-104 -25 -104 -52 q-137 -458 -400 -632q-219 -140 -488 -140h-32q-420 0 -656 360q-88 173 -88 364q0 137 64 248h8q36 -6 36 -24q-28 -141 -36 -224q0 -369 344 -584q140 -68 276 -68h36q298 0 544 224q178 180 260 364l44 112v4q-88 -12 -212 -12q-425 0 -720 300q-224 239 -224 572 q0 147 76 348v4q-99 -8 -356 -116q-172 -87 -344 -260q-396 -431 -396 -932v-72zM1213 2376q0 -492 500 -728q184 -68 336 -68h88q115 0 172 32q24 101 24 208v24q0 512 -496 804q-185 104 -520 104q-25 -10 -84 -192q-20 -96 -20 -160v-24zM2769 1792q214 175 336 348 q184 284 184 524v48q0 156 -116 156h-16q-314 0 -384 -960z" />
<glyph unicode="T" horiz-adv-x="3200" d="M25 1460q0 699 596 1120q277 188 640 240q90 0 116 36q299 288 756 288h48q241 0 876 -224q522 -156 708 -156h60q278 0 464 268l12 4q40 -18 40 -24v-12q-296 -448 -792 -448h-48q-71 0 -268 36q-171 -180 -208 -280q-68 -127 -112 -288l-160 -744q-108 -392 -216 -592 q-66 -150 -260 -360q-356 -324 -860 -324h-80q-592 0 -1016 540q-296 387 -296 920zM117 1372q0 -667 576 -1108q292 -184 584 -184h80q425 0 748 448q182 258 368 824q209 708 308 828q45 110 344 408l24 24q-300 92 -452 168q-499 244 -728 244h-60q-252 0 -460 -188h-4 v-8q218 -11 456 -120q324 -170 452 -508q72 -222 72 -352h8q80 178 124 344l4 4h4q56 -8 56 -28q-64 -222 -140 -372q-64 -91 -64 -172q-47 -288 -188 -484q-287 -388 -720 -388h-60q-380 0 -620 348q-104 169 -104 384q0 126 40 248l4 4h4q56 -8 56 -24q-36 -166 -36 -228 v-24q0 -363 348 -580q147 -68 308 -68q457 0 780 532q64 133 100 256h-8q-247 -196 -484 -196h-28q-415 0 -640 460q-64 177 -64 344q0 307 176 552l-4 4q-228 -42 -420 -140q-455 -234 -660 -752q-80 -232 -80 -468v-32zM1169 2208q0 -404 324 -644q144 -92 332 -92 q285 0 492 232q32 23 32 44v24q0 463 -248 708q-285 284 -676 284h-44q-212 -212 -212 -548v-8z" />
<glyph unicode="U" horiz-adv-x="3713" d="M25 1839q0 636 544 1096q429 352 928 352h60q615 0 1016 -496q184 -263 184 -608q0 -294 -160 -628l-480 -1104q-68 -118 -68 -200v-48q13 -112 92 -112h40q244 0 788 1476q156 439 328 692q373 512 776 512h44q184 0 260 -164l4 -40v-32q0 -102 -104 -128h-40 q-92 0 -92 88v68q0 132 -108 132h-44q-213 0 -456 -448q-148 -263 -452 -1344q-156 -470 -156 -724q0 -209 120 -288q31 -12 56 -12h36q179 0 308 308h8q52 -24 52 -32q-161 -360 -376 -360h-32q-284 0 -404 464q-12 55 -20 196q4 85 20 184l-4 4h-4q-275 -628 -520 -628 h-24q-206 0 -280 340l-4 72v4l-4 16q0 265 352 924q336 636 336 948v72q0 381 -364 648q-268 188 -644 188q-717 0 -1192 -660q-216 -344 -216 -752q0 -556 456 -904q230 -156 484 -156h60q432 0 768 380l84 116q35 0 60 -28v-8q-348 -524 -944 -524q-619 0 -956 616 q-116 244 -116 532z" />
<glyph unicode="V" horiz-adv-x="3305" d="M25 1764q0 741 724 1224q361 216 752 216h64q564 0 900 -456q184 -262 184 -652q0 -285 -124 -768q-144 -596 -144 -960v-36q0 -88 24 -168h4q114 477 268 856q256 609 612 1128q138 201 396 460q440 404 740 404h52q131 0 160 -116v-28q0 -114 -136 -168h-40 q-98 0 -172 136q-47 32 -76 32q-247 0 -788 -660q-342 -468 -548 -912q-111 -232 -240 -600q-96 -301 -160 -612q-22 -84 -68 -84q-252 377 -252 776q0 237 176 1020q56 339 56 484v92q0 378 -296 608q-226 164 -572 164q-734 0 -1184 -656q-208 -337 -208 -736 q0 -591 472 -936q226 -140 488 -140h36q494 0 844 468q164 246 164 540q0 387 -360 648q-146 80 -272 80h-52q-208 0 -444 -200h-8q-9 0 -24 48q37 44 136 104q184 112 360 112q448 0 668 -484q56 -148 56 -296v-48q0 -539 -540 -900q-263 -144 -536 -144q-599 0 -940 556 q-152 271 -152 604z" />
<glyph unicode="W" horiz-adv-x="3795" d="M25 1756q0 687 596 1172q365 272 768 272h80q507 0 852 -408q216 -279 216 -660q0 -293 -184 -1168q-80 -459 -80 -620q0 -98 28 -196h4q91 406 212 724q229 577 540 1124q66 119 84 136h4q52 -13 52 -28q-88 -540 -232 -1340q-32 -229 -32 -380v-16q0 -100 36 -220h8 q96 418 220 760q228 582 444 936q144 287 516 708q425 428 740 428h48q120 0 176 -100l4 -36q0 -105 -144 -156l-36 -4q-94 0 -176 136q-23 20 -40 20h-32q-292 0 -892 -848q-283 -423 -548 -1104q-106 -279 -200 -664q-32 -197 -40 -212l-16 -12h-12q-84 102 -176 340 q-76 235 -76 448q0 265 120 724v4h-4q-197 -373 -360 -864q-80 -257 -148 -636q-17 -16 -32 -16h-8q-34 33 -116 200q-128 292 -128 576v32q0 247 120 752q120 562 120 752q0 578 -524 776q-173 52 -348 52q-752 0 -1168 -772q-136 -299 -136 -628q0 -599 436 -928 q212 -144 496 -144q547 0 856 524q112 212 112 472q0 381 -296 636q-139 100 -308 100h-8q-197 0 -448 -192h-12q-10 0 -20 40v4q212 212 484 212q412 0 628 -496q56 -158 56 -324q0 -528 -488 -876q-258 -168 -556 -168q-533 0 -856 504q-176 280 -176 652z" />
<glyph unicode="X" horiz-adv-x="3900" d="M25 1378q0 680 600 1156q327 224 680 224q14 0 100 100q297 280 664 280h64q556 0 852 -504q132 -241 132 -576v-8h8q66 157 412 524q305 272 540 272h36q146 0 220 -148l8 -32v-36q0 -106 -108 -172l-36 -8h-32q-91 0 -124 96l-8 60l8 92v12q0 31 -40 36h-36 q-211 0 -564 -388q-66 -85 -232 -376q-52 -49 -52 -76v-44l-56 -1308v-8q0 -492 180 -588q75 -48 168 -48h40q131 0 300 168h8l32 -24v-12q-156 -204 -356 -204h-48q-396 0 -576 460q-60 174 -60 368q0 95 48 724q-156 -239 -316 -564q-105 -196 -268 -416 q-325 -404 -852 -404h-28q-756 0 -1152 692q-152 310 -152 640v8zM105 1322q0 -638 532 -1040q298 -212 684 -212q449 0 712 288q301 385 608 912q176 298 176 308q36 276 36 656q0 536 -408 768q-166 72 -352 72h-4q-374 0 -668 -300l4 -4h40q480 0 788 -472 q76 -129 128 -316q26 -160 32 -160q76 121 152 320l16 16h32q12 0 12 -16q-80 -272 -216 -436q0 -484 -380 -824q-247 -200 -552 -200h-56q-363 0 -612 344q-104 171 -104 380q0 134 44 248h8v4q52 -7 52 -20q-36 -139 -36 -232q0 -402 392 -600q127 -52 248 -52h52 q411 0 716 484q120 247 120 320q12 22 12 52h-4q-246 -192 -456 -192h-56q-368 0 -584 396q-84 170 -84 360v24q0 199 140 480h-4q-210 -14 -488 -160q-412 -258 -596 -740q-76 -216 -76 -456zM1189 2174q0 -346 296 -576q159 -104 316 -104h80q251 0 448 228v40 q0 597 -532 860q-151 76 -428 76q-33 -22 -104 -172q-76 -188 -76 -352z" />
<glyph unicode="Y" horiz-adv-x="3007" d="M25 1440q0 696 572 1112q161 109 356 192q259 428 716 428h64q317 0 572 -232q164 -165 164 -400q0 -311 -296 -720q-104 -145 -104 -184h4q121 32 384 272h4q21 0 40 -24q0 -41 -200 -200q-127 -90 -280 -148q-52 -162 -52 -228v-36q0 -148 148 -196h36q218 0 408 620 q125 370 264 572q384 540 760 540h28q219 0 308 -172q16 -35 16 -76v-12q0 -96 -108 -132l-28 -4q-108 13 -108 100l-4 20l16 132q-15 76 -128 76h-16q-465 0 -688 -844q-104 -552 -164 -776q-104 -321 -220 -508q-391 -612 -1080 -612h-72q-694 0 -1124 692 q-188 332 -188 748zM113 1364q0 -630 528 -1080q291 -220 616 -220h64q443 0 768 456q131 199 192 356q60 137 84 228h-4q-106 -96 -220 -96q-278 0 -380 308q-16 86 -16 140v4l-8 8h-32q-597 0 -828 516q-56 158 -56 316q0 119 60 328v4q-489 -251 -684 -780 q-84 -242 -84 -488zM893 2268q0 -408 380 -652q180 -96 360 -96h32q84 0 84 28q32 248 292 608q256 336 256 536v24q0 288 -424 384q-80 12 -148 12h-32q-416 0 -648 -336v-4h4q147 44 316 44h32q334 0 644 -204l4 -12q-16 -52 -32 -52q-333 204 -596 204h-72 q-146 0 -368 -84q-84 -182 -84 -344v-56z" />
<glyph unicode="Z" horiz-adv-x="3906" d="M25 1368v4q0 765 636 1212q328 208 728 208q154 0 356 -64q324 444 804 444h64q218 0 584 -172q454 -196 676 -196h24q219 0 392 300h8q56 0 56 -24q-52 -139 -244 -316q-238 -184 -480 -184q-254 -260 -292 -364q-103 -165 -328 -788q-226 -537 -416 -772 q-39 -65 -188 -212q22 -19 260 -104q282 -84 456 -84h80q227 0 428 188q88 108 88 224v16q0 52 -44 52q-153 -52 -176 -52q-106 0 -136 92q-8 18 -8 52q0 142 128 200q16 8 44 8h28q151 0 232 -236q12 -44 16 -112q0 -370 -404 -608q-155 -80 -308 -80h-48q-253 0 -768 324 h-4q-451 -324 -892 -324h-84q-566 0 -976 488q-292 377 -292 880zM117 1312q0 -594 484 -1012q303 -236 684 -236h20q359 0 760 392v4q-121 99 -308 196q-182 76 -232 76q-111 -20 -152 -20h-12q-70 0 -96 36v20q0 52 112 52h44q53 0 108 -20q255 81 468 272 q312 308 312 752v32q0 529 -532 788q-36 -68 -36 -128v-28q0 -64 80 -64h60q116 0 136 -156q-12 -110 -140 -140l-28 -4q-137 0 -192 200q-8 18 -8 52v52q0 101 60 236q-144 64 -312 64q-709 0 -1128 -732q-152 -313 -152 -640v-44zM1641 764q76 -10 500 -212 q292 389 524 836q163 349 400 696q82 121 356 392l116 108q-224 48 -468 144q-588 272 -668 272l-68 4h-60q-233 0 -460 -288v-4q148 -78 248 -160q336 -272 336 -732v-24q0 -667 -660 -988q-92 -35 -96 -44z" />
<glyph unicode="[" horiz-adv-x="1918" d="M25 24l1104 3192l176 496l24 8h528q36 0 36 -36q-14 -80 -40 -80h-336q-12 0 -96 -256l-1124 -3236l4 -4h340q16 -6 16 -28q-19 -80 -60 -80h-560q-12 4 -12 24z" />
<glyph unicode="\" horiz-adv-x="1597" d="M25 3006v4q0 28 40 28h58l32 -4l1417 -3000q0 -21 -18 -28h-179q-9 2 -18 20z" />
<glyph unicode="]" horiz-adv-x="1910" d="M25 12v20q0 48 40 80h336q12 0 84 228l1128 3264l-4 4h-332q-24 17 -24 36q29 80 80 80h524q22 0 28 -20l-796 -2316l-484 -1388h-568z" />
<glyph unicode="^" horiz-adv-x="1954" d="M25 1440v4q805 862 828 876l20 4h216q35 0 80 -64l760 -816v-4l-8 -8h-128l-816 696h-4q-787 -679 -816 -696h-124z" />
<glyph unicode="_" horiz-adv-x="1662" d="M25 12v140l12 12h1588l12 -12v-140l-12 -12h-1588z" />
<glyph unicode="`" horiz-adv-x="318" d="M25 2168q0 88 76 124q16 8 44 8h24q81 0 112 -80l12 -76l-108 -776l-4 -4h-40q-18 0 -40 232q-76 517 -76 572z" />
<glyph unicode="a" horiz-adv-x="1283" d="M0 316v44q0 318 376 632q192 140 392 140h44q140 0 268 -68l12 -24q-55 -243 -220 -784q-12 -46 -12 -80q0 -56 56 -56q108 11 428 436l244 332h4q16 0 16 -60q-9 -85 -484 -664q-162 -164 -284 -164h-32q-126 0 -140 148v8q0 84 68 296q-122 -194 -236 -312 q-128 -136 -240 -136q-183 0 -248 208zM212 236q11 -120 72 -120h36q170 0 488 652l104 240q-48 40 -116 40h-32q-214 0 -492 -544q-60 -151 -60 -244v-24z" />
<glyph unicode="b" horiz-adv-x="1131" d="M0 400v56q0 547 536 1436q87 152 268 332l48 28q41 0 48 -168v-4q0 -727 -564 -1420l-112 -148l-4 -16v-32l-4 -48q0 -218 96 -280q37 -20 60 -20h44q133 0 260 212v4q-44 102 -44 212q0 340 216 548h12q48 -53 48 -152v-32q0 -307 -132 -568v-4q26 -72 84 -72h8 q157 0 564 632h12q12 0 12 -44q-8 -118 -332 -512q-157 -164 -268 -164q-75 0 -132 68l-76 -84q-159 -160 -308 -160h-40q-201 0 -284 260q-16 86 -16 140zM244 676q472 561 472 1088q0 76 -24 188h-4q-81 -98 -156 -260q-103 -211 -208 -624q-40 -151 -80 -392z" />
<glyph unicode="c" horiz-adv-x="1083" d="M0 384v28q0 330 372 632q167 112 300 112h44q169 0 240 -152l8 -60v-4q0 -139 -160 -192l-40 -4h-16q-59 0 -92 48v4l68 48q44 46 44 100v44q0 73 -84 84h-12q-214 0 -388 -448q-44 -132 -44 -216v-68q0 -159 124 -220q43 -20 100 -20h44q341 0 804 684l80 120h4l12 -12 v-20q0 -157 -388 -580l-124 -104q-248 -188 -476 -188h-48q-241 0 -352 256q-20 70 -20 128z" />
<glyph unicode="d" horiz-adv-x="1259" d="M0 328q0 370 372 676q180 136 348 136q43 0 164 -44l244 936q0 38 180 44h4q25 0 28 -32l-480 -1808l-4 -52q0 -68 40 -68h16q73 0 348 352l308 416h4q12 -2 12 -32v-20q-37 -149 -444 -644q-177 -188 -312 -188h-36q-90 0 -128 80l-12 64q0 55 52 256 q-256 -400 -424 -400h-24q-175 0 -236 184q-20 72 -20 144zM212 236q0 -90 60 -116l24 -4h36q179 0 444 624q80 216 80 240q-45 68 -112 68h-4q-151 0 -408 -404q-120 -209 -120 -376v-32z" />
<glyph unicode="e" horiz-adv-x="1071" d="M0 376v52q0 265 288 560q181 164 352 164h48q135 0 224 -124q16 -25 24 -96q0 -305 -636 -552l-68 -20v-24q0 -154 112 -216q51 -20 92 -20h56q281 0 712 556l172 256h4q12 0 16 -44q0 -137 -352 -536q-337 -332 -644 -332h-48q-254 0 -344 288zM232 448l4 -4 q267 73 408 248q88 129 88 224v52q-9 96 -80 96h-36q-196 0 -344 -448q-24 -69 -40 -168z" />
<glyph unicode="f" horiz-adv-x="963" d="M0 387q68 116 92 116q16 0 112 -60h4q248 1096 504 1592q57 107 148 208h16q72 -76 72 -324v-44q0 -648 -484 -1160q-32 -183 -56 -276l-32 -112q96 -72 204 -72h52q215 0 528 488l116 160l12 -12v-20q0 -149 -368 -560q-178 -176 -368 -176h-40q-81 0 -184 52v-4 q88 -277 88 -428v-52q0 -406 -324 -624h-8q-48 37 -48 296v60q0 304 136 820q-172 92 -172 132zM116 -713v-8l8 -8q208 176 208 464v24q0 113 -36 252h-8q-172 -421 -172 -724zM508 895q304 333 304 728v24q0 139 -48 284h-8q-76 -241 -180 -760z" />
<glyph unicode="g" horiz-adv-x="1291" d="M0 308v32q0 377 448 676q182 96 324 96h76q248 0 248 -96q0 -85 -288 -1016h8q84 47 360 336q264 312 424 536h8l8 -8v-32q0 -108 -336 -484q-26 -53 -336 -348l-160 -128q-52 -199 -116 -324q-177 -338 -496 -464q-38 0 -44 92v28q0 369 472 684q0 138 132 536 q-262 -420 -464 -420h-24q-162 0 -228 192q-16 57 -16 112zM208 244q0 -124 100 -124h12q189 0 520 692q72 156 72 172q-38 44 -104 44h-32q-197 0 -488 -488q-80 -166 -80 -296zM288 -656v-48q0 -56 12 -56q161 81 248 340q44 135 44 192h-4q-300 -198 -300 -428z" />
<glyph unicode="h" horiz-adv-x="1387" d="M0 28v12q0 36 264 968q218 664 436 996q147 207 244 240h4q76 -72 76 -232v-24q0 -458 -580 -1088l-116 -440q152 220 320 424q212 236 352 236q176 -29 176 -192q0 -75 -200 -652q-12 -47 -12 -100q0 -36 48 -40h20q151 18 512 528l148 208h8q12 -2 12 -32v-12 q0 -140 -476 -644q-190 -184 -292 -184h-24q-112 0 -156 104q-12 42 -12 84v4q0 79 200 664l12 72v12q-4 48 -40 48h-20q-138 0 -516 -588l-156 -300q-36 -76 -116 -76l-92 -16q-16 6 -24 20zM492 1076q352 382 352 764q-4 148 -36 180q-53 -58 -112 -192 q-108 -276 -204 -752z" />
<glyph unicode="i" horiz-adv-x="699" d="M0 192q0 87 232 780q20 124 120 124q70 20 100 20q24 -8 24 -32q-268 -800 -268 -880v-36q0 -64 60 -64h24q159 0 652 700l64 88h4q12 -2 12 -32v-16q0 -95 -324 -496q-310 -348 -496 -348h-32q-123 0 -164 120zM340 1476v4q2 44 76 148l16 12h8q168 -79 168 -120 q-7 -144 -64 -144h-12q-83 0 -176 68q-16 17 -16 32z" />
<glyph unicode="j" horiz-adv-x="875" d="M0 -635q0 449 176 668q0 180 244 1032q25 48 104 48l88 16q36 -7 36 -32l-344 -1172v-4h4q73 33 384 360q247 287 488 600h4q16 -5 16 -36v-8q0 -109 -468 -624q-297 -312 -400 -372q-76 -37 -76 -100q-152 -507 -192 -620l-16 -12q-40 23 -48 204v52zM536 1477 q54 160 96 160l120 -64q44 -20 44 -48v-40q0 -98 -60 -112h-16q-184 36 -184 104z" />
<glyph unicode="k" horiz-adv-x="1415" d="M0 28q300 1101 412 1420q128 345 332 628q163 180 208 180h8q76 -59 76 -232q0 -457 -508 -1036q-84 -79 -84 -148l-100 -380l156 232q325 436 548 436h40q128 0 188 -144l4 -44v-12q0 -215 -488 -432v-4q107 -340 224 -340h24q154 10 592 624q73 110 88 120h4 q10 0 16 -36q0 -96 -304 -472q-312 -376 -468 -376h-20q-150 0 -320 316q-24 76 -24 120q0 42 196 128q268 147 268 284q0 104 -100 104h-40q-195 -27 -524 -548q-92 -143 -176 -352q-51 -52 -136 -52q-25 -12 -72 -12q-20 6 -20 28zM508 1088h4q348 372 348 724 q0 109 -32 232h-8q-92 -97 -156 -312q-68 -216 -156 -644z" />
<glyph unicode="l" horiz-adv-x="807" d="M0 392q7 256 180 892q144 421 280 652q53 133 224 312l40 16h8q56 -46 56 -208v-40q0 -659 -536 -1360q-28 -133 -28 -232v-68q0 -159 84 -216l44 -12h28q218 0 724 776l4 4h8q8 0 16 -56q-28 -148 -432 -616q-238 -236 -388 -236h-36q-186 0 -260 240q-16 80 -16 152z M272 816q336 438 336 868q0 107 -24 264h-8q-97 -195 -172 -452q-68 -213 -124 -600z" />
<glyph unicode="m" horiz-adv-x="2039" d="M0 20v28q0 27 220 740q78 269 100 284q115 40 164 40h20q20 -10 20 -32v-4l-176 -592v-4q165 284 316 468q160 180 280 180h28q126 0 156 -120v-48q0 -68 -124 -500l172 256q298 404 480 404h4q160 -15 160 -160v-32q0 -95 -156 -524q-48 -160 -48 -212q0 -56 56 -56h16 q123 9 500 524q133 193 164 224h4l8 -8v-40q-35 -167 -468 -664q-175 -172 -308 -172h-28q-106 0 -152 128l-4 40v4q0 157 164 568q52 146 52 196v8q0 44 -60 48q-156 0 -560 -700q-126 -276 -176 -276l-112 -12h-12q-21 0 -28 16v20q240 854 240 896v24q0 40 -44 40h-4 q-133 0 -476 -592q-32 -51 -176 -352q-23 -44 -120 -44q0 -8 -68 -8h-8z" />
<glyph unicode="n" horiz-adv-x="1407" d="M0 28v32q244 825 300 976q45 68 116 68l84 20q32 -5 32 -32q-204 -643 -204 -660q470 696 680 696h24q113 0 164 -140l4 -48q0 -107 -160 -552q-52 -155 -52 -192v-16q0 -36 48 -36h4q115 0 508 520l164 220h4q11 0 16 -44q-14 -116 -440 -612q-218 -228 -332 -228h-24 q-117 0 -168 148l-4 40v4q0 92 216 744v12q0 36 -48 36q-155 -8 -568 -640q-59 -97 -144 -288q-36 -48 -196 -48q-16 6 -24 20z" />
<glyph unicode="o" horiz-adv-x="1299" d="M0 408q0 347 380 644q167 108 312 108h44q216 0 328 -264q20 -76 20 -144v-20q0 -147 -120 -380v-8q9 -52 72 -52q112 7 412 432l160 212q16 0 16 -48q-3 -108 -416 -592q-147 -140 -236 -140h-4q-56 0 -116 52h-4q-215 -208 -420 -208h-44q-262 0 -364 264 q-20 90 -20 144zM248 324q0 -202 140 -240l32 -4h36q142 0 316 264q-20 55 -20 120q0 184 152 396v4q0 91 -84 180q-46 36 -96 36h-36q-146 0 -308 -264q-132 -243 -132 -448v-44z" />
<glyph unicode="p" horiz-adv-x="1479" d="M0 -530q0 420 252 896q101 614 152 696q35 56 112 56l80 20q24 0 28 -32v-4q0 -34 -80 -348l4 -4h4q296 392 504 392h36q162 0 228 -192l8 -84v-16q0 -341 -504 -624v-12q58 -76 140 -76h24l4 -4q276 0 792 788h8q12 -4 12 -24v-20q0 -146 -452 -644q-245 -220 -436 -220 h-24q-142 0 -292 96q-40 40 -40 72q0 48 204 140q320 197 320 488q0 156 -124 156h-40q-143 0 -384 -372q-51 -65 -68 -184q-233 -1020 -388 -1316l-12 -8h-8q-44 38 -60 384zM84 -498q5 -125 24 -132q44 114 84 456l28 288h-8q-128 -244 -128 -612z" />
<glyph unicode="q" horiz-adv-x="1283" d="M0 362q0 256 240 520q250 260 512 260h72q202 0 244 -68l8 -24q0 -40 -240 -820q22 -24 72 -24h24q174 9 648 704h8q9 0 20 -44q0 -103 -404 -576q-152 -168 -292 -168q-34 0 -56 8l-4 -12q0 -519 -432 -956q-40 -48 -56 -48q-28 0 -28 104q0 313 340 1168l-140 -192 q-157 -168 -264 -168h-28q-158 0 -224 192q-16 59 -20 144zM200 262q0 -120 100 -120v-4q230 0 592 880v4q-45 36 -104 36h-28q-221 0 -492 -484q-68 -164 -68 -268v-44zM408 -714h4q162 158 228 292q136 277 136 516h-8l-120 -232q-178 -343 -240 -576z" />
<glyph unicode="r" horiz-adv-x="779" d="M0 920q0 154 148 248l52 8l8 -12q-32 -84 -32 -100v-16q0 -54 64 -60h32q64 0 368 104h4l12 -12v-4q-189 -411 -308 -708q-40 -110 -40 -152v-24q0 -64 80 -64q134 0 524 564l176 232h4q12 -4 12 -24v-20q0 -89 -192 -324q-208 -292 -360 -448q-141 -108 -228 -108h-44 q-123 0 -176 108q-12 41 -16 100q0 205 312 684l4 12h-4q-173 -104 -260 -104h-28q-112 0 -112 120z" />
<glyph unicode="s" horiz-adv-x="1111" d="M0 176q0 89 108 132q31 16 84 16q88 -9 88 -28v-4q-56 -53 -56 -92v-32q0 -88 152 -88h12q173 0 244 124l12 60v12q0 109 -128 196l-216 176q-80 75 -80 160q0 229 372 320l92 8h48q158 0 192 -112l4 -32v-4q0 -121 -188 -164l-36 -4l-12 16v8q56 56 56 112v16 q-10 76 -96 76h-48q-123 0 -180 -108l-4 -24v-20q0 -95 148 -184q154 -122 200 -168q72 -94 72 -176q0 -77 -76 -172v-8q212 36 596 652q50 84 56 84h4q11 0 16 -40q0 -139 -344 -540q-184 -185 -276 -216q-68 -40 -212 -64q-155 -64 -264 -64h-56q-174 0 -260 104 q-24 41 -24 72z" />
<glyph unicode="t" horiz-adv-x="671" d="M0 180v24q0 139 192 756l-4 4h-156l-12 12v4q0 76 56 76h144q11 0 72 216q75 243 100 252q24 16 148 36h4q28 0 28 -32l-128 -472h136q28 0 28 -20q-9 -72 -28 -72h-156q-12 0 -88 -284q-128 -396 -128 -476v-40q10 -48 48 -48h36q166 0 612 668l76 112h4q12 -4 12 -24 v-24q0 -138 -444 -640q-212 -208 -328 -208h-40q-136 0 -176 128q-8 18 -8 52z" />
<glyph unicode="u" horiz-adv-x="1359" d="M0 164q0 80 256 840q16 88 88 88l120 20h16l16 -16v-8q0 -39 -212 -628q-72 -211 -72 -280q0 -47 56 -52q152 0 592 656q30 46 132 256q27 44 120 64l72 12h12l20 -20v-8l-272 -828l-8 -56v-20q0 -47 56 -52q142 30 460 484l204 296l4 4h4q20 -9 20 -40v-12 q-33 -162 -424 -628q-221 -236 -348 -236h-32q-103 0 -140 104q-12 24 -12 76v4q0 92 128 472q-465 -656 -676 -656h-32q-105 0 -140 108z" />
<glyph unicode="v" horiz-adv-x="1079" d="M0 372v40q0 180 56 628q0 38 188 76h4q24 -14 24 -36v-12q0 -76 -68 -576l-4 -100q0 -205 84 -252l28 -4h28q138 0 264 256v4q-16 83 -16 148q0 267 316 536l28 20h16q17 0 24 -60q0 -282 -268 -664q32 -116 116 -116h4q140 0 464 488l96 128h8q12 -2 12 -32v-8 q-20 -124 -328 -488q-164 -172 -268 -172q-98 0 -156 116h-8q-218 -292 -408 -292h-24q-164 0 -204 264q-8 39 -8 108z" />
<glyph unicode="w" horiz-adv-x="1911" d="M0 204v24q0 99 184 748q15 120 88 120l140 20l12 -16l-216 -788l-12 -88q0 -75 64 -88h28q172 0 500 600q140 348 188 348l152 28q24 -9 24 -28q-8 -54 -172 -612q-40 -131 -40 -228v-24q0 -93 84 -104h40q124 0 376 308l-12 152q0 285 212 508l28 20h12q48 -33 48 -160 q0 -223 -200 -536q19 -148 108 -148h32q144 0 552 616h4q8 0 12 -28q0 -134 -328 -520q-155 -152 -248 -152h-24q-118 0 -180 152h-4q-310 -328 -488 -328h-36q-160 0 -188 200v36q0 68 72 380q-378 -612 -612 -612h-28q-113 0 -156 108q-16 37 -16 92z" />
<glyph unicode="x" horiz-adv-x="1467" d="M0 116q0 124 136 220h4l8 -16l-4 -72q0 -48 64 -56q80 0 284 284l80 100v4l-260 596q0 37 156 52l16 4q22 0 132 -264l88 -184l296 344q107 104 184 104h20q94 0 124 -152v-16q0 -204 -256 -396l-40 -20q-16 4 -16 16q164 193 164 320v20q0 64 -64 64h-24 q-70 0 -336 -344l-12 -24q165 -383 228 -408q35 -32 72 -32h36q201 23 688 736l4 4h8q12 -4 12 -24v-24q-16 -120 -432 -600q-228 -232 -356 -232h-20q-207 0 -364 380h-4q-17 -13 -288 -356q-136 -144 -216 -144h-20q-81 0 -92 116z" />
<glyph unicode="y" horiz-adv-x="1331" d="M0 218q0 59 248 840q26 44 136 44q0 7 76 8l12 -20l-248 -808l-4 -56v-24q0 -48 56 -48q189 0 576 644q142 296 180 296q109 20 156 20l12 -20q-193 -521 -332 -1048l-8 -44q231 199 436 444l256 324l84 112h4q16 -4 16 -44q0 -115 -532 -696q-220 -222 -300 -272 q0 -58 -128 -340q-60 -124 -220 -280q-134 -111 -248 -144h-12q-24 0 -36 140q0 337 472 688q0 43 172 676q-376 -580 -656 -580h-8q-120 0 -152 120zM332 -650l16 -92h4q111 40 204 228q92 242 92 332h-4q-312 -213 -312 -468z" />
<glyph unicode="z" horiz-adv-x="1075" d="M0 25v16q113 252 148 252l20 4h24q46 42 528 572v8q-231 48 -280 48q-64 0 -144 -132q-21 -20 -40 -20q-24 0 -44 28v8q0 22 68 224q31 96 76 96q0 7 48 8l480 -80q95 88 120 88h20q22 0 28 -20q0 -35 -344 -388l-424 -460v-4q355 -96 440 -96q164 0 496 488l160 228h4 q16 0 16 -56v-4q-4 -88 -392 -560q-248 -272 -388 -272l-444 80l-24 4q-82 -76 -120 -76h-4q-21 0 -28 16z" />
<glyph unicode="{" horiz-adv-x="1314" d="M25 1286v104q0 12 164 28q155 33 244 96q120 121 120 372v312q0 470 100 580q55 112 232 172q152 44 332 44h32l24 4q16 -6 16 -12v-84q-4 -12 -24 -12h-36q-316 0 -380 -204q-36 -119 -36 -284v-276q0 -508 -172 -632q-115 -106 -352 -156q2 -6 148 -44 q200 -83 248 -164q128 -135 128 -576v-292q0 -318 132 -404q131 -68 316 -68h4q24 -2 24 -12v-76l-12 -12h-60q-472 0 -592 256q-72 121 -72 536v308q0 365 -252 440q-105 36 -272 52z" />
<glyph unicode="|" horiz-adv-x="266" d="M25 -525v3812l12 12h192l12 -12v-3812q0 -21 -12 -24h-192q-12 4 -12 24z" />
<glyph unicode="}" horiz-adv-x="1310" d="M25 -210q4 12 24 12h24q274 0 368 148q64 74 64 480v184q0 483 200 604q115 87 312 124v8q-297 71 -392 204q-120 151 -120 532v184q0 397 -68 480q-88 152 -356 152h-32q-21 0 -24 12v84l8 8h60q472 0 592 -256q68 -164 68 -356v-308q0 -371 56 -460q43 -90 124 -132 q173 -76 304 -76l44 -8l4 -4v-104q0 -12 -160 -28q-184 -39 -264 -120q-108 -93 -108 -492v-344q0 -406 -228 -532q-165 -84 -432 -84h-56l-12 12v76z" />
<glyph unicode="~" horiz-adv-x="1219" />
<glyph unicode="&#xa1;" horiz-adv-x="672" />
<glyph unicode="&#xa2;" horiz-adv-x="1139" />
<glyph unicode="&#xa3;" horiz-adv-x="2058" d="M25 188q0 125 196 164h72q165 0 376 -108h8q87 147 152 312l8 28v4q-58 16 -104 16h-4q-76 0 -184 -76h-4q-16 17 -16 32q147 112 292 112l48 -8q13 0 56 116l56 124h-8q-299 0 -412 284q-20 78 -20 136q0 287 356 492q159 84 328 84h48q112 -5 112 -24v-4q0 -21 -12 -24 l-80 8h-76q-306 0 -488 -324q-72 -144 -72 -268v-44q0 -210 220 -268l64 -4h52q10 6 136 264q387 680 708 680q144 0 196 -184l4 -48v-12q0 -305 -560 -612q-57 -32 -168 -72q-56 -196 -120 -352q70 -32 172 -32q67 0 128 44h4q16 -6 16 -28q-89 -76 -200 -76l-160 16 q-61 -140 -224 -308l-92 -76q30 -32 184 -92q50 -16 84 -16h40q216 0 512 372l76 96h12l16 -16q-25 -77 -296 -348q-190 -148 -344 -148h-40q-102 0 -296 116h-4q-159 -76 -180 -76q-107 -40 -216 -40h-60q-192 0 -280 132zM69 184q0 -108 220 -144h48q190 0 308 148v4 q-204 116 -360 116h-56q-107 0 -156 -96zM1317 1016h4q41 0 216 112q137 104 232 240q172 251 172 364v16q0 100 -100 100h-28q-267 0 -496 -832z" />
<glyph unicode="&#xa4;" horiz-adv-x="819" d="M25 413l118 117q-32 46 -48 103q-12 42 -12 84q0 44 13 87q16 55 47 99l-118 118l80 81l118 -118q44 30 99 46q44 14 89 14q41 0 83 -12q57 -17 102 -48l118 118l80 -81l-117 -117q31 -46 48 -102q12 -42 12 -85q0 -42 -12 -85q-17 -56 -48 -102l117 -117l-80 -81 l-118 118q-45 -32 -101 -48q-42 -12 -85 -12q-42 0 -85 12q-57 16 -102 48l-118 -118zM187 716q0 -28 9 -56q16 -59 57 -100q41 -40 99 -57q29 -8 58 -8t58 8q58 17 99 57q40 41 57 99q9 29 9 58t-9 58q-17 58 -57 99q-41 40 -100 57q-29 8 -58 8t-58 -9q-58 -17 -98 -56 q-39 -40 -56 -98q-10 -30 -10 -60z" />
<glyph unicode="&#xa5;" horiz-adv-x="1316" d="M25 1176q0 19 10.5 27.5t32.5 8.5q27 0 123 -8t164 -8h57h31q33 0 41 -6.5t8 -26.5q0 -8 -15 -14t-38 -6q-6 0 -18.5 2t-18.5 2q-24 0 -37.5 -9.5t-13.5 -25.5q0 -18 16.5 -52t46.5 -77l158 -221q13 -19 33 -53q41 -70 71 -70q9 0 16.5 5t14.5 15l277 396q8 12 13 26.5 t5 24.5q0 18 -10 27t-37 14q-15 2 -41 4q-47 3 -47 25q0 15 8 22.5t25 7.5q3 0 15 -1q56 -7 108 -7h139q30 0 65 1t37 1q11 0 18.5 -4.5t8.5 -11.5q0 -28 -38 -34q-18 -3 -27 -5q-63 -15 -147 -117q-7 -9 -12 -15l-169 -206h323q15 0 24 -6t9 -17q0 -15 -6 -20.5t-23 -5.5 h-366q-46 -57 -96.5 -112.5t-52.5 -59.5h511q18 0 25.5 -5.5t7.5 -17.5q0 -14 -7 -21t-22 -7h-530q0 -11 -1 -30.5t-1 -29.5l2 -215q0 -114 5.5 -150t20.5 -44q30 -17 107.5 -19t77.5 -31q0 -12 -10 -20t-25 -8q-2 0 -35.5 4t-64.5 4q-91 0 -208.5 -4t-142.5 -4q-31 0 -40 4 t-9 16t8 18.5t37 12.5q9 2 25 5q74 16 92 32q17 13 24 47t7 102l-2 242q0 19 -1.5 35t-4.5 32l-484 1q-14 0 -21 6.5t-7 19.5t6.5 19t21.5 6h467l-121 172h-344q-17 0 -23.5 5.5t-6.5 18.5q0 14 6 19.5t22 5.5h307q-43 57 -108 155q-131 197 -227 197q-7 0 -13 5.5t-6 11.5z " />
<glyph unicode="&#xa6;" horiz-adv-x="210" d="M25 371h160v-789h-160v789zM25 789v789h160v-789h-160z" />
<glyph unicode="&#xa7;" horiz-adv-x="724" d="M25 1130q0 148 89 237q82 79 216 86q8 1 17 1h3q66 0 163 -16.5t97 -41.5v-194h-51q-5 81 -80 132q-70 47 -149 51h-15q-78 0 -125 -44.5t-47 -117.5q0 -132 287 -269q149 -67 204.5 -143.5t55.5 -187.5q0 -171 -101 -282q-47 -39 -99 -64q108 -56 154 -118 q55 -77 55 -187q0 -171 -101 -283q-124 -102 -277 -105v1q-6 -1 -13 -1h-3q-66 0 -163 16.5t-97 41.5v194h51q5 -81 80 -132q68 -45 145 -50q113 6 185 69q72 64 72 165q0 125 -316 276q-123 64 -175.5 137t-52.5 177q0 148 89 237q67 65 170 82l-40 19q-123 64 -175.5 137 t-52.5 177zM152 571q0 -123 248 -250q56 16 97 53q73 65 73 166q0 5 -1 10h-2q-1 14 -4 27q-22 61 -113 127q-59 29 -126 29q-78 0 -125 -44.5t-47 -117.5z" />
<glyph unicode="&#xa8;" horiz-adv-x="631" d="M25 1263q0 13 14 26l71 72q13 12 25 12q11 0 27 -14l69 -73q10 -14 10 -25q0 -13 -12 -27l-69 -75q-17 -17 -25 -17q-14 0 -25 12l-76 86q-9 12 -9 23zM390 1263q0 13 14 26l71 72q13 12 25 12q11 0 27 -13l69 -74q10 -14 10 -25q0 -13 -12 -26l-69 -76q-17 -17 -25 -17 q-14 0 -25 12l-76 87q-9 11 -9 22z" />
<glyph unicode="&#xa9;" horiz-adv-x="1219" />
<glyph unicode="&#xaa;" horiz-adv-x="648" />
<glyph unicode="&#xab;" horiz-adv-x="719" d="M25 479l342 303h14v-37l-205 -266l205 -266v-37h-14zM338 479l342 303h14v-37l-205 -266l205 -266v-37h-14z" />
<glyph unicode="&#xac;" horiz-adv-x="890" d="M25 667v100h840v-491l-1 -1h-98v392h-741z" />
<glyph unicode="&#xad;" horiz-adv-x="1662" d="M25 841v140l12 12h1588l12 -12v-140l-12 -12h-1588z" />
<glyph unicode="&#xae;" horiz-adv-x="1219" />
<glyph unicode="&#xaf;" horiz-adv-x="670" />
<glyph unicode="&#xb0;" horiz-adv-x="606" d="M25 1164q0 116 81.5 197t197.5 81q115 0 196 -81.5t81 -196.5q0 -114 -82 -196t-197 -82q-117 0 -197 81t-80 197zM95 1163q0 -87 61 -147t148 -60t147 60t60 147t-60.5 148t-146.5 61t-147.5 -61t-61.5 -148z" />
<glyph unicode="&#xb1;" horiz-adv-x="1014" />
<glyph unicode="&#xb2;" horiz-adv-x="1014" />
<glyph unicode="&#xb3;" horiz-adv-x="1014" />
<glyph unicode="&#xb4;" horiz-adv-x="1219" />
<glyph unicode="&#xb5;" horiz-adv-x="1180" />
<glyph unicode="&#xb6;" horiz-adv-x="886" d="M25 1086q0 157 107.5 253t285.5 96h443v-70h-127v-1365h-82v1365h-166v-1365h-84v738q-174 8 -275.5 102.5t-101.5 245.5z" />
<glyph unicode="&#xb7;" horiz-adv-x="300" d="M25 709q0 15 16 31l82 84q15 14 29 14q13 0 31 -16l80 -86q12 -16 12 -29q0 -15 -14 -31l-80 -88q-20 -20 -29 -20q-16 0 -29 14l-88 101q-10 13 -10 26z" />
<glyph unicode="&#xb8;" horiz-adv-x="458" d="M25 -290q85 -52 152 -52q66 0 94.5 21.5t28.5 66.5t-49 64q-40 16 -102 16q-16 0 -34 -2l48 176h63l-37 -104q32 4 62 5q86 0 134 -40.5t48 -113.5q0 -76 -58.5 -120.5t-160.5 -44.5q-109 0 -189 32v96z" />
<glyph unicode="&#xb9;" horiz-adv-x="1014" />
<glyph unicode="&#xba;" horiz-adv-x="718" />
<glyph unicode="&#xbb;" horiz-adv-x="719" d="M25 176v37l205 266l-205 266v37h14l342 -303l-342 -303h-14zM338 176v37l205 266l-205 266v37h14l342 -303l-342 -303h-14z" />
<glyph unicode="&#xbc;" horiz-adv-x="1708" />
<glyph unicode="&#xbd;" horiz-adv-x="1964" />
<glyph unicode="&#xbe;" horiz-adv-x="1708" />
<glyph unicode="&#xbf;" horiz-adv-x="748" />
<glyph unicode="&#xc0;" horiz-adv-x="1540" />
<glyph unicode="&#xc1;" horiz-adv-x="1540" />
<glyph unicode="&#xc2;" horiz-adv-x="1540" />
<glyph unicode="&#xc3;" horiz-adv-x="1540" />
<glyph unicode="&#xc4;" horiz-adv-x="1540" />
<glyph unicode="&#xc5;" horiz-adv-x="1540" />
<glyph unicode="&#xc6;" horiz-adv-x="2118" />
<glyph unicode="&#xc7;" horiz-adv-x="1399" />
<glyph unicode="&#xc8;" horiz-adv-x="1151" />
<glyph unicode="&#xc9;" horiz-adv-x="1151" />
<glyph unicode="&#xca;" horiz-adv-x="1151" />
<glyph unicode="&#xcb;" horiz-adv-x="1151" />
<glyph unicode="&#xcc;" horiz-adv-x="657" />
<glyph unicode="&#xcd;" horiz-adv-x="657" />
<glyph unicode="&#xce;" horiz-adv-x="657" />
<glyph unicode="&#xcf;" horiz-adv-x="657" />
<glyph unicode="&#xd0;" horiz-adv-x="1518" />
<glyph unicode="&#xd1;" horiz-adv-x="1554" />
<glyph unicode="&#xd2;" horiz-adv-x="1614" />
<glyph unicode="&#xd3;" horiz-adv-x="1614" />
<glyph unicode="&#xd4;" horiz-adv-x="1614" />
<glyph unicode="&#xd5;" horiz-adv-x="1614" />
<glyph unicode="&#xd6;" horiz-adv-x="1614" />
<glyph unicode="&#xd7;" horiz-adv-x="742" d="M25 470l247 247l-247 248l99 98l247 -247l248 247l98 -99l-247 -247l247 -247l-99 -99l-247 247l-247 -247z" />
<glyph unicode="&#xd8;" horiz-adv-x="1614" />
<glyph unicode="&#xd9;" horiz-adv-x="1501" />
<glyph unicode="&#xda;" horiz-adv-x="1501" />
<glyph unicode="&#xdb;" horiz-adv-x="1501" />
<glyph unicode="&#xdc;" horiz-adv-x="1501" />
<glyph unicode="&#xdd;" horiz-adv-x="1233" />
<glyph unicode="&#xde;" horiz-adv-x="1120" />
<glyph unicode="&#xdf;" horiz-adv-x="1251" />
<glyph unicode="&#xe0;" horiz-adv-x="922" />
<glyph unicode="&#xe1;" horiz-adv-x="922" />
<glyph unicode="&#xe2;" horiz-adv-x="922" />
<glyph unicode="&#xe3;" horiz-adv-x="922" />
<glyph unicode="&#xe4;" horiz-adv-x="922" />
<glyph unicode="&#xe5;" horiz-adv-x="922" />
<glyph unicode="&#xe6;" horiz-adv-x="1454" />
<glyph unicode="&#xe7;" horiz-adv-x="905" />
<glyph unicode="&#xe8;" horiz-adv-x="909" />
<glyph unicode="&#xe9;" horiz-adv-x="909" />
<glyph unicode="&#xea;" horiz-adv-x="909" />
<glyph unicode="&#xeb;" horiz-adv-x="909" />
<glyph unicode="&#xec;" horiz-adv-x="514" />
<glyph unicode="&#xed;" horiz-adv-x="514" />
<glyph unicode="&#xee;" horiz-adv-x="514" />
<glyph unicode="&#xef;" horiz-adv-x="514" />
<glyph unicode="&#xf0;" horiz-adv-x="1139" />
<glyph unicode="&#xf1;" horiz-adv-x="1108" />
<glyph unicode="&#xf2;" />
<glyph unicode="&#xf3;" />
<glyph unicode="&#xf4;" />
<glyph unicode="&#xf5;" />
<glyph unicode="&#xf6;" />
<glyph unicode="&#xf7;" horiz-adv-x="890" d="M25 647v140h839l1 -1v-139h-840zM320 377q0 15 16 31l82 84q15 14 29 14q13 0 31 -16l80 -86q12 -16 12 -29q0 -15 -14 -31l-80 -88q-20 -20 -29 -20q-16 0 -29 14l-88 101q-10 13 -10 26zM320 1070q0 15 16 31l82 84q15 14 29 14q13 0 31 -16l80 -86q12 -16 12 -29 q0 -15 -14 -31l-80 -88q-20 -20 -29 -20q-16 0 -29 14l-88 101q-10 13 -10 26z" />
<glyph unicode="&#xf8;" />
<glyph unicode="&#xf9;" horiz-adv-x="1059" />
<glyph unicode="&#xfa;" horiz-adv-x="1059" />
<glyph unicode="&#xfb;" horiz-adv-x="1059" />
<glyph unicode="&#xfc;" horiz-adv-x="1059" />
<glyph unicode="&#xfd;" horiz-adv-x="868" />
<glyph unicode="&#xfe;" />
<glyph unicode="&#xff;" horiz-adv-x="868" />
<glyph unicode="&#x2c6;" horiz-adv-x="632" d="M25 1079l232 355h118l232 -355h-58l-233 216l-233 -216h-58z" />
<glyph unicode="&#x2dc;" horiz-adv-x="624" d="M25 1132q19 106 68 158.5t129 52.5q46 -1 113 -24q64 -23 112 -23h4q36 0 58 20t36 66h54q-20 -103 -68.5 -154t-126.5 -51h-4q-50 0 -113 23q-66 24 -114 24q-39 0 -60.5 -20.5t-33.5 -71.5h-54z" />
<glyph unicode="&#x2000;" horiz-adv-x="1862" />
<glyph unicode="&#x2001;" horiz-adv-x="3724" />
<glyph unicode="&#x2002;" horiz-adv-x="1862" />
<glyph unicode="&#x2003;" horiz-adv-x="3724" />
<glyph unicode="&#x2004;" horiz-adv-x="1241" />
<glyph unicode="&#x2005;" horiz-adv-x="931" />
<glyph unicode="&#x2006;" horiz-adv-x="620" />
<glyph unicode="&#x2007;" horiz-adv-x="620" />
<glyph unicode="&#x2008;" horiz-adv-x="465" />
<glyph unicode="&#x2009;" horiz-adv-x="744" />
<glyph unicode="&#x200a;" horiz-adv-x="206" />
<glyph unicode="&#x2010;" horiz-adv-x="1662" d="M25 841v140l12 12h1588l12 -12v-140l-12 -12h-1588z" />
<glyph unicode="&#x2011;" horiz-adv-x="1662" d="M25 841v140l12 12h1588l12 -12v-140l-12 -12h-1588z" />
<glyph unicode="&#x2012;" horiz-adv-x="1662" d="M25 841v140l12 12h1588l12 -12v-140l-12 -12h-1588z" />
<glyph unicode="&#x2013;" horiz-adv-x="1046" d="M25 419v120h996v-120h-996z" />
<glyph unicode="&#x2014;" horiz-adv-x="2098" d="M25 419v120h2048v-120h-2048z" />
<glyph unicode="&#x2018;" horiz-adv-x="318" d="M25 2168q0 88 76 124q16 8 44 8h24q81 0 112 -80l12 -76l-108 -776l-4 -4h-40q-18 0 -40 232q-76 517 -76 572z" />
<glyph unicode="&#x2019;" horiz-adv-x="318" d="M25 2168q0 88 76 124q16 8 44 8h24q81 0 112 -80l12 -76l-108 -776l-4 -4h-40q-18 0 -40 232q-76 517 -76 572z" />
<glyph unicode="&#x201a;" horiz-adv-x="494" d="M1 -307q22 88 56 88q220 141 220 232v24q0 44 -60 48l-76 -20h-8l-16 16q39 196 80 196q28 16 72 16h32q140 -12 140 -136l4 -24q0 -226 -436 -448h-4l-4 4v4z" />
<glyph unicode="&#x201c;" horiz-adv-x="826" d="M25 2168q0 88 76 124q16 8 44 8h24q81 0 112 -80l12 -76l-108 -776l-4 -4h-40q-18 0 -40 232q-76 517 -76 572zM537 2136v24q0 95 72 132l60 12q102 0 128 -108l4 -44q-88 -693 -112 -788h-40q-13 0 -32 152z" />
<glyph unicode="&#x201d;" horiz-adv-x="826" d="M25 2168q0 88 76 124q16 8 44 8h24q81 0 112 -80l12 -76l-108 -776l-4 -4h-40q-18 0 -40 232q-76 517 -76 572zM537 2136v24q0 95 72 132l60 12q102 0 128 -108l4 -44q-88 -693 -112 -788h-40q-13 0 -32 152z" />
<glyph unicode="&#x201e;" horiz-adv-x="655" d="M25 114v42l119 125q44 0 88.5 -65.5t44.5 -151.5q0 -109 -71 -226.5t-139 -117.5v43q73 43 87 190q0 119 -129 161zM378 114v42l119 125q44 0 88.5 -65.5t44.5 -151.5q0 -109 -71 -226.5t-139 -117.5v43q73 43 87 190q0 119 -129 161z" />
<glyph unicode="&#x2022;" horiz-adv-x="642" d="M25 718q0 123 87 209t210 86q122 0 208.5 -86.5t86.5 -208.5t-87.5 -209.5t-209.5 -87.5q-123 0 -209 87t-86 210z" />
<glyph unicode="&#x2026;" horiz-adv-x="1666" d="M25 136q0 15 16 31l82 84q15 14 29 14q13 0 31 -16l80 -86q12 -16 12 -29q0 -15 -14 -31l-80 -88q-20 -20 -29 -20q-16 0 -29 14l-88 101q-10 13 -10 26zM708 136q0 15 16 31l82 84q15 14 29 14q13 0 31 -16l80 -86q12 -16 12 -29q0 -15 -14 -31l-80 -88q-20 -20 -29 -20 q-16 0 -29 14l-88 101q-10 13 -10 26zM1391 136q0 15 16 31l82 84q15 14 29 14q13 0 31 -16l80 -86q12 -16 12 -29q0 -15 -14 -31l-80 -88q-20 -20 -29 -20q-16 0 -29 14l-88 101q-10 13 -10 26z" />
<glyph unicode="&#x202f;" horiz-adv-x="744" />
<glyph unicode="&#x2039;" horiz-adv-x="406" d="M25 479l342 303h14v-37l-205 -266l205 -266v-37h-14z" />
<glyph unicode="&#x203a;" horiz-adv-x="406" d="M25 176v37l205 266l-205 266v37h14l342 -303l-342 -303h-14z" />
<glyph unicode="&#x205f;" horiz-adv-x="931" />
<glyph unicode="&#x20ac;" horiz-adv-x="1219" />
<glyph unicode="&#x2122;" horiz-adv-x="1497" />
<glyph unicode="&#xe000;" horiz-adv-x="1230" d="M0 0v1230h1230v-1230h-1230z" />
</font>
</defs>
</svg>
